<?xml version="1.0" encoding="UTF-8"?>
<svg version="1.1" xmlns="http://www.w3.org/2000/svg" width="169" height="179">
<path d="M0 0 C0.763125 0.33 1.52625 0.66 2.3125 1 C2.3125 1.66 2.3125 2.32 2.3125 3 C2.9725 3 3.6325 3 4.3125 3 C6.83772269 5.52522269 8.15730219 7.40507505 9.0625 10.875 C8.02537914 15.19633693 5.65765676 16.94431906 2.35546875 19.77734375 C1.68128906 20.18082031 1.00710937 20.58429687 0.3125 21 C-0.6775 20.67 -1.6675 20.34 -2.6875 20 C-1.6975 19.505 -1.6975 19.505 -0.6875 19 C-0.22226937 17.10466658 -0.22226937 17.10466658 -0.0625 14.9375 C0.123125 12.9884375 0.123125 12.9884375 0.3125 11 C-2.88521446 8.17125259 -5.40753296 7.17469253 -9.6875 7 C-12.5126393 8.21994652 -14.16072519 9.16593989 -15.8125 11.78125 C-19.17837613 20.3161502 -16.0375865 32.17622035 -14.6875 41 C-12.45336987 37.64880481 -12.44902238 36.5822245 -12.4921875 32.67578125 C-12.49863281 31.64775391 -12.50507813 30.61972656 -12.51171875 29.56054688 C-12.52847656 28.48869141 -12.54523438 27.41683594 -12.5625 26.3125 C-12.57152344 25.22904297 -12.58054687 24.14558594 -12.58984375 23.02929688 C-12.6134266 20.3526429 -12.64633874 17.67643203 -12.6875 15 C-11.6975 15 -10.7075 15 -9.6875 15 C-9.43097656 15.71800781 -9.17445313 16.43601562 -8.91015625 17.17578125 C-7.61535012 20.1666593 -6.00490021 22.53052204 -4.125 25.1875 C-0.73779509 30.47380724 0.97868075 34.68619741 0.3125 41 C-1.09050755 47.1098716 -3.52534845 51.94791685 -8.58203125 55.75390625 C-16.15644049 60.23671988 -23.99123563 61.66358745 -32.6875 62 C-32.15158862 72.58886963 -29.8032286 81.85261493 -26.3671875 91.82421875 C-25.6819472 94.01777534 -25.1997471 96.18481937 -24.75 98.4375 C-23.87459271 102.61919764 -22.41793387 106.36807538 -20.76953125 110.30078125 C-19.16041788 114.31485106 -17.8499835 118.4179793 -16.51953125 122.53125 C-15.76265526 124.96480184 -15.76265526 124.96480184 -14.6875 127 C-14.51897753 125.39602723 -14.35275114 123.7918131 -14.1875 122.1875 C-14.0946875 121.29417969 -14.001875 120.40085937 -13.90625 119.48046875 C-13.64357599 116.91694901 -13.64357599 116.91694901 -13.6875 114 C-14.3475 113.34 -15.0075 112.68 -15.6875 112 C-15.44454021 106.77636459 -13.37492135 103.33455057 -10.6875 99 C-10.0275 99 -9.3675 99 -8.6875 99 C-8.6875 96.69 -8.6875 94.38 -8.6875 92 C-5.6875 94 -5.6875 94 -4.8125 96.625 C-4.66964094 100.48219452 -5.56029132 102.73653609 -7.19140625 106.16796875 C-7.35511719 106.77253906 -7.51882812 107.37710938 -7.6875 108 C-6.6975 109.485 -6.6975 109.485 -5.6875 111 C-5.42744196 112.98294257 -5.17201489 114.96706955 -4.97265625 116.95703125 C-4.72894862 119.20126851 -4.72894862 119.20126851 -3.625 122 C-2.44420573 125.77854167 -1.90305082 129.08552091 -2.6875 133 C-4.11439974 135.50370512 -5.56009104 136.97389623 -7.6875 139 C-8.3475 139 -9.0075 139 -9.6875 139 C-1.52232675 160.26261163 -1.52232675 160.26261163 13.3125 177 C13.3125 177.33 13.3125 177.66 13.3125 178 C7.03230066 178.15263112 0.75258263 178.25741479 -5.52905273 178.32958984 C-7.66400018 178.35968916 -9.79882471 178.40057913 -11.93334961 178.45263672 C-15.00926079 178.52575323 -18.08353203 178.55952521 -21.16015625 178.5859375 C-22.58244286 178.63238907 -22.58244286 178.63238907 -24.03346252 178.67977905 C-29.96885355 178.68276642 -33.10419572 177.69370218 -37.38444519 173.51391602 C-38.98951977 171.64910719 -40.06414307 169.92826485 -40.9375 167.625 C-41.24945313 166.85929688 -41.56140625 166.09359375 -41.8828125 165.3046875 C-42.6875 163 -42.6875 163 -43.2421875 160.8203125 C-44.20342044 157.33090527 -44.91102004 155.53859109 -47.95703125 153.42578125 C-53.51646627 150.58501577 -58.43406832 148.9498416 -64.671875 148.68359375 C-65.60644531 148.64169922 -66.54101562 148.59980469 -67.50390625 148.55664062 C-68.47199219 148.51732422 -69.44007812 148.47800781 -70.4375 148.4375 C-71.91283203 148.37272461 -71.91283203 148.37272461 -73.41796875 148.30664062 C-75.84101275 148.20077948 -78.2641554 148.09869829 -80.6875 148 C-80.81817871 148.73355713 -80.94885742 149.46711426 -81.08349609 150.22290039 C-81.64002375 152.78171288 -82.37637507 155.01003681 -83.3515625 157.43359375 C-83.66867188 158.24763672 -83.98578125 159.06167969 -84.3125 159.90039062 C-84.97889219 161.59110049 -85.65338035 163.27864179 -86.3359375 164.96289062 C-86.80773437 166.18588867 -86.80773437 166.18588867 -87.2890625 167.43359375 C-87.58119629 168.16634521 -87.87333008 168.89909668 -88.17431641 169.65405273 C-88.96994618 172.59558318 -88.96994618 172.59558318 -87.6875 178 C-103.1975 178 -118.7075 178 -134.6875 178 C-134.6875 177.34 -134.6875 176.68 -134.6875 176 C-133.82125 175.484375 -132.955 174.96875 -132.0625 174.4375 C-121.63664896 167.76495534 -117.3811737 152.32218946 -114.6875 141 C-115.26628906 140.88785156 -115.84507813 140.77570313 -116.44140625 140.66015625 C-122.66950838 138.8296358 -127.6140674 133.8117259 -130.7109375 128.25 C-134.64330948 119.18981497 -133.80524241 111.21257719 -130.6875 102 C-127.81081094 95.05701363 -123.16858395 89.11809826 -117.6875 84 C-117.0275 84 -116.3675 84 -115.6875 84 C-115.6875 83.34 -115.6875 82.68 -115.6875 82 C-113.5703125 80.4921875 -113.5703125 80.4921875 -110.8125 78.875 C-109.90757813 78.33617188 -109.00265625 77.79734375 -108.0703125 77.2421875 C-105.6875 76 -105.6875 76 -103.6875 76 C-103.6875 76.66 -103.6875 77.32 -103.6875 78 C-104.84588621 79.12431603 -106.00617233 80.24673843 -107.17578125 81.359375 C-110.12900514 84.56442419 -112.3599936 88.32877857 -114.6875 92 C-99.33003456 80.00284797 -91.36870747 67.8228778 -85.92578125 49.27734375 C-83.70352908 43.39573626 -80.56581416 40.45522576 -75.015625 37.90625 C-68.84097715 35.5026958 -62.53738836 34.10289189 -56 33.125 C-50.80091321 32.24481027 -46.74627676 30.38593142 -42.6875 27 C-41.27749336 24.17998673 -41.44201549 22.12992745 -41.6875 19 C-43.62563117 14.37001997 -46.13966418 12.92019735 -50.6875 11 C-50.6875 10.34 -50.6875 9.68 -50.6875 9 C-44.98674919 9.46536741 -41.38494691 10.65758585 -36.6875 14 C-33.29027077 18.71228571 -32.95095782 23.38008224 -33.6875 29 C-36.51100358 36.87608892 -42.57901519 39.62695427 -49.6875 43 C-50.780625 43.556875 -51.87375 44.11375 -53 44.6875 C-55.6875 46 -55.6875 46 -58.6875 47 C-60.60249255 50.52655319 -61.08268961 54.13546308 -61.62329102 58.07885742 C-62.67468108 65.55295819 -63.64540599 71.89635889 -69.6875 77 C-73.42261627 79.7208993 -77.42289533 81.8152229 -81.51025391 83.95361328 C-82.82413079 84.64136373 -84.13718273 85.33069212 -85.44946289 86.02148438 C-86.7396002 86.69705179 -88.0341668 87.36425192 -89.33374023 88.02148438 C-96.99675431 91.98683208 -102.21828628 96.82640935 -106 104.75 C-107.24762479 110.64786263 -106.74132083 115.93138874 -104 121.3125 C-93.64097599 133.35136574 -78.33020396 134.60233668 -63.390625 136.78125 C-62.49529053 136.91200928 -61.59995605 137.04276855 -60.67749023 137.17749023 C-58.92803057 137.42905382 -57.17755289 137.67366258 -55.42602539 137.91040039 C-54.62156982 138.02375732 -53.81711426 138.13711426 -52.98828125 138.25390625 C-52.27841064 138.35002197 -51.56854004 138.4461377 -50.8371582 138.54516602 C-48.30956045 139.07996609 -46.05921662 139.98659007 -43.6875 141 C-44.10261841 139.71706055 -44.10261841 139.71706055 -44.52612305 138.40820312 C-54.3684817 107.97780144 -54.3684817 107.97780144 -58.6875 94 C-60.19933707 97.98348545 -61.71096612 101.96704975 -63.22241211 105.95068359 C-63.73537738 107.3025927 -64.24839703 108.65448117 -64.76147461 110.00634766 C-67.41563778 116.99969288 -70.06890086 123.99323642 -72.6875 131 C-82.15298234 129.78540271 -91.66209308 126.5580982 -98.5 119.625 C-100.57171776 116.81557859 -100.69527372 115.8814507 -100.9375 112.1875 C-98.59980288 101.43826769 -90.26269114 92.75521278 -81.51171875 86.77734375 C-78.5526719 84.91514967 -75.51597202 83.28087377 -72.4375 81.625 C-66.17371373 77.97112468 -62.19635347 74.23421675 -60.14404297 67.11474609 C-59.43655861 64.31189254 -58.76605418 61.51563275 -58.2421875 58.67211914 C-57.05229188 52.75657615 -54.42454893 50.10285466 -49.765625 46.5234375 C-43.76192037 42.75187946 -37.86246254 40 -30.6875 40 C-30.3575 39.01 -30.0275 38.02 -29.6875 37 C-29.0275 37 -28.3675 37 -27.6875 37 C-27.4767306 27.52508414 -27.4767306 27.52508414 -28.4375 18.125 C-29.05920072 13.27753644 -27.53254419 9.8896425 -24.6875 6 C-17.59963108 -1.44698761 -9.7549101 -2.64539935 0 0 Z " fill="#FBA606" transform="translate(149.6875,1)"/>
<path d="M0 0 C5.70075081 0.46536741 9.30255309 1.65758585 14 5 C17.39722923 9.71228571 17.73654218 14.38008224 17 20 C14.17649642 27.87608892 8.10848481 30.62695427 1 34 C-0.093125 34.556875 -1.18625 35.11375 -2.3125 35.6875 C-5 37 -5 37 -8 38 C-9.91499255 41.52655319 -10.39518961 45.13546308 -10.93579102 49.07885742 C-11.98718108 56.55295819 -12.95790599 62.89635889 -19 68 C-22.73511627 70.7208993 -26.73539533 72.8152229 -30.82275391 74.95361328 C-32.13663079 75.64136373 -33.44968273 76.33069212 -34.76196289 77.02148438 C-36.0521002 77.69705179 -37.3466668 78.36425192 -38.64624023 79.02148438 C-46.30925431 82.98683208 -51.53078628 87.82640935 -55.3125 95.75 C-56.56012479 101.64786263 -56.05382083 106.93138874 -53.3125 112.3125 C-42.95347599 124.35136574 -27.64270396 125.60233668 -12.703125 127.78125 C-11.80779053 127.91200928 -10.91245605 128.04276855 -9.98999023 128.17749023 C-8.24053057 128.42905382 -6.49005289 128.67366258 -4.73852539 128.91040039 C-0.55198327 129.50033176 3.13863982 130.16762338 7 132 C6.01 127.545 6.01 127.545 5 123 C8.81538462 125.46153846 8.81538462 125.46153846 9.75 128.1875 C9.8325 128.785625 9.915 129.38375 10 130 C11.32 128.68 12.64 127.36 14 126 C14.75 127.75 14.75 127.75 15 130 C13.71182656 131.37701298 12.37195574 132.70644173 11 134 C8.79616884 138.1756801 8.47145009 142.3640741 8 147 C4.16610796 145.56229049 0.58436131 143.80169455 -3.03515625 141.90234375 C-6.63823835 140.247648 -10.04604646 139.85169314 -13.984375 139.68359375 C-14.91894531 139.64169922 -15.85351562 139.59980469 -16.81640625 139.55664062 C-17.78449219 139.51732422 -18.75257812 139.47800781 -19.75 139.4375 C-21.22533203 139.37272461 -21.22533203 139.37272461 -22.73046875 139.30664062 C-25.15351275 139.20077948 -27.5766554 139.09869829 -30 139 C-30.13067871 139.73355713 -30.26135742 140.46711426 -30.39599609 141.22290039 C-30.95252375 143.78171288 -31.68887507 146.01003681 -32.6640625 148.43359375 C-32.98117188 149.24763672 -33.29828125 150.06167969 -33.625 150.90039062 C-34.29139219 152.59110049 -34.96588035 154.27864179 -35.6484375 155.96289062 C-36.12023438 157.18588867 -36.12023438 157.18588867 -36.6015625 158.43359375 C-36.89369629 159.16634521 -37.18583008 159.89909668 -37.48681641 160.65405273 C-38.28244618 163.59558318 -38.28244618 163.59558318 -37 169 C-52.51 169 -68.02 169 -84 169 C-84 168.34 -84 167.68 -84 167 C-83.13375 166.484375 -82.2675 165.96875 -81.375 165.4375 C-70.94914896 158.76495534 -66.6936737 143.32218946 -64 132 C-64.57878906 131.88785156 -65.15757813 131.77570313 -65.75390625 131.66015625 C-71.98200838 129.8296358 -76.9265674 124.8117259 -80.0234375 119.25 C-83.95580948 110.18981497 -83.11774241 102.21257719 -80 93 C-77.12331094 86.05701363 -72.48108395 80.11809826 -67 75 C-66.34 75 -65.68 75 -65 75 C-65 74.34 -65 73.68 -65 73 C-62.8828125 71.4921875 -62.8828125 71.4921875 -60.125 69.875 C-59.22007813 69.33617188 -58.31515625 68.79734375 -57.3828125 68.2421875 C-55 67 -55 67 -53 67 C-53 67.66 -53 68.32 -53 69 C-54.15838621 70.12431603 -55.31867233 71.24673843 -56.48828125 72.359375 C-59.44150514 75.56442419 -61.6724936 79.32877857 -64 83 C-48.64253456 71.00284797 -40.68120747 58.8228778 -35.23828125 40.27734375 C-33.01602908 34.39573626 -29.87831416 31.45522576 -24.328125 28.90625 C-18.15347715 26.5026958 -11.84988836 25.10289189 -5.3125 24.125 C-0.11341321 23.24481027 3.94122324 21.38593142 8 18 C9.41000664 15.17998673 9.24548451 13.12992745 9 10 C7.06186883 5.37001997 4.54783582 3.92019735 0 2 C0 1.34 0 0.68 0 0 Z " fill="#F8740B" transform="translate(99,10)"/>
<path d="M0 0 C0.33 0 0.66 0 1 0 C1.103125 1.258125 1.20625 2.51625 1.3125 3.8125 C2.20011888 11.77606659 4.72079444 19.28025654 7.3203125 26.82421875 C8.0055528 29.01777534 8.4877529 31.18481937 8.9375 33.4375 C9.81290729 37.61919764 11.26956613 41.36807538 12.91796875 45.30078125 C14.52708212 49.31485106 15.8375165 53.4179793 17.16796875 57.53125 C17.92484474 59.96480184 17.92484474 59.96480184 19 62 C19.16852247 60.39602723 19.33474886 58.7918131 19.5 57.1875 C19.63921875 55.84751953 19.63921875 55.84751953 19.78125 54.48046875 C20.04392401 51.91694901 20.04392401 51.91694901 20 49 C19.34 48.34 18.68 47.68 18 47 C18.24295979 41.77636459 20.31257865 38.33455057 23 34 C23.66 34 24.32 34 25 34 C25 31.69 25 29.38 25 27 C28 29 28 29 28.875 31.625 C29.01785906 35.48219452 28.12720868 37.73653609 26.49609375 41.16796875 C26.33238281 41.77253906 26.16867188 42.37710938 26 43 C26.66 43.99 27.32 44.98 28 46 C28.26005804 47.98294257 28.51548511 49.96706955 28.71484375 51.95703125 C28.95855138 54.20126851 28.95855138 54.20126851 30.0625 57 C31.24329427 60.77854167 31.78444918 64.08552091 31 68 C29.57310026 70.50370512 28.12740896 71.97389623 26 74 C25.34 74 24.68 74 24 74 C32.16517325 95.26261163 32.16517325 95.26261163 47 112 C47 112.33 47 112.66 47 113 C40.71980066 113.15263112 34.44008263 113.25741479 28.15844727 113.32958984 C26.02349982 113.35968916 23.88867529 113.40057913 21.75415039 113.45263672 C18.67823921 113.52575323 15.60396797 113.55952521 12.52734375 113.5859375 C11.10505714 113.63238907 11.10505714 113.63238907 9.65403748 113.67977905 C3.72166932 113.68276489 0.58667497 112.69681742 -3.69007874 108.51734924 C-7.85116921 103.69734391 -9.77942664 97.28634087 -10 91 C-9.22013194 84.30788896 -7.8796691 78.8796691 -3 74 C-3 73.01 -3 72.02 -3 71 C-4.32 72.32 -5.64 73.64 -7 75 C-9 73 -9 73 -9.4375 71 C-9.87458708 68.61359262 -9.87458708 68.61359262 -13 67 C-14.15317663 64.02096037 -14.0448029 63.13440869 -13 60 C-13.33 59.34 -13.66 58.68 -14 58 C-14.0165904 55.44358682 -13.97300981 52.91995478 -13.87890625 50.3671875 C-13.84348976 49.23943405 -13.84348976 49.23943405 -13.80735779 48.08889771 C-13.7306938 45.68407434 -13.64668156 43.27957082 -13.5625 40.875 C-13.50928203 39.24610948 -13.45654161 37.61720328 -13.40429688 35.98828125 C-13.27507502 31.9919844 -13.13926173 27.99595908 -13 24 C-12.34 24 -11.68 24 -11 24 C-11 24.99 -11 25.98 -11 27 C-10.34 27 -9.68 27 -9 27 C-9.12375 25.2675 -9.12375 25.2675 -9.25 23.5 C-9.27252571 19.26516649 -8.06368178 16.48681714 -5.97265625 12.859375 C-4.95849296 10.92065322 -4.44856596 9.13422963 -4 7 C-3.34 7 -2.68 7 -2 7 C-1.34 4.69 -0.68 2.38 0 0 Z " fill="#FD9C0B" transform="translate(116,66)"/>
<path d="M0 0 C0.33 0.66 0.66 1.32 1 2 C0.0390625 3.83984375 0.0390625 3.83984375 -1.375 5.9375 C-5.97776568 12.81593474 -5.81262635 19.98527345 -5 28 C-1.83284526 37.64652474 5.69549272 45.88616855 14.5 50.8125 C26.70051555 56.23703691 39.28450271 57.340825 52.4453125 57.8046875 C60.71428385 58.1134591 69.89332375 58.68805732 76 65 C76.5 68.3125 76.5 68.3125 76 71 C72.16610796 69.56229049 68.58436131 67.80169455 64.96484375 65.90234375 C61.36176165 64.247648 57.95395354 63.85169314 54.015625 63.68359375 C52.61376953 63.62075195 52.61376953 63.62075195 51.18359375 63.55664062 C49.73146484 63.49766602 49.73146484 63.49766602 48.25 63.4375 C46.77466797 63.37272461 46.77466797 63.37272461 45.26953125 63.30664062 C42.84648725 63.20077948 40.4233446 63.09869829 38 63 C37.86932129 63.73355713 37.73864258 64.46711426 37.60400391 65.22290039 C37.04747625 67.78171288 36.31112493 70.01003681 35.3359375 72.43359375 C34.86027344 73.6546582 34.86027344 73.6546582 34.375 74.90039062 C33.70860781 76.59110049 33.03411965 78.27864179 32.3515625 79.96289062 C32.03703125 80.77822266 31.7225 81.59355469 31.3984375 82.43359375 C31.10630371 83.16634521 30.81416992 83.89909668 30.51318359 84.65405273 C29.71755382 87.59558318 29.71755382 87.59558318 31 93 C15.49 93 -0.02 93 -16 93 C-16 92.34 -16 91.68 -16 91 C-15.13375 90.484375 -14.2675 89.96875 -13.375 89.4375 C-2.94914896 82.76495534 1.3063263 67.32218946 4 56 C3.42121094 55.88785156 2.84242187 55.77570313 2.24609375 55.66015625 C-3.98200838 53.8296358 -8.9265674 48.8117259 -12.0234375 43.25 C-15.95399981 34.19398443 -15.12387161 26.20781633 -12 17 C-9.19584956 10.36181115 -4.91881753 5.20232286 0 0 Z " fill="#D43604" transform="translate(31,86)"/>
<path d="M0 0 C0.763125 0.33 1.52625 0.66 2.3125 1 C2.3125 1.66 2.3125 2.32 2.3125 3 C2.9725 3 3.6325 3 4.3125 3 C6.83772269 5.52522269 8.15730219 7.40507505 9.0625 10.875 C8.02537914 15.19633693 5.65765676 16.94431906 2.35546875 19.77734375 C1.34419922 20.38255859 1.34419922 20.38255859 0.3125 21 C-0.6775 20.67 -1.6675 20.34 -2.6875 20 C-2.0275 19.67 -1.3675 19.34 -0.6875 19 C-0.22226937 17.10466658 -0.22226937 17.10466658 -0.0625 14.9375 C0.123125 12.9884375 0.123125 12.9884375 0.3125 11 C-2.88521446 8.17125259 -5.40753296 7.17469253 -9.6875 7 C-12.5126393 8.21994652 -14.16072519 9.16593989 -15.8125 11.78125 C-19.17837613 20.3161502 -16.0375865 32.17622035 -14.6875 41 C-12.45336987 37.64880481 -12.44902238 36.5822245 -12.4921875 32.67578125 C-12.50185547 31.13374023 -12.50185547 31.13374023 -12.51171875 29.56054688 C-12.52847656 28.48869141 -12.54523438 27.41683594 -12.5625 26.3125 C-12.57152344 25.22904297 -12.58054688 24.14558594 -12.58984375 23.02929688 C-12.6134266 20.3526429 -12.64633874 17.67643203 -12.6875 15 C-11.6975 15 -10.7075 15 -9.6875 15 C-9.43097656 15.71800781 -9.17445313 16.43601562 -8.91015625 17.17578125 C-7.61535012 20.1666593 -6.00490021 22.53052204 -4.125 25.1875 C-0.74670329 30.45990449 1.00395777 34.69785633 0.3125 41 C-1.1376429 46.59340835 -2.65923608 50.85146091 -7.6875 54 C-18.12289462 58.90009834 -31.2174261 59.87435026 -42.52734375 61.47265625 C-43.24019531 61.64667969 -43.95304687 61.82070313 -44.6875 62 C-45.1825 62.99 -45.1825 62.99 -45.6875 64 C-46.409375 63.95875 -47.13125 63.9175 -47.875 63.875 C-51.61735101 64.04132671 -54.3780997 65.34529985 -57.6875 67 C-57.49700185 54.20198759 -57.49700185 54.20198759 -54.625 49.9375 C-53.655625 49.298125 -52.68625 48.65875 -51.6875 48 C-50.79998047 47.36384766 -50.79998047 47.36384766 -49.89453125 46.71484375 C-44.0222684 42.6945121 -37.85414022 40 -30.6875 40 C-30.3575 39.01 -30.0275 38.02 -29.6875 37 C-29.0275 37 -28.3675 37 -27.6875 37 C-27.4767306 27.52508414 -27.4767306 27.52508414 -28.4375 18.125 C-29.05920072 13.27753644 -27.53254419 9.8896425 -24.6875 6 C-17.59963108 -1.44698761 -9.7549101 -2.64539935 0 0 Z " fill="#FCB304" transform="translate(149.6875,1)"/>
<path d="M0 0 C5.70075081 0.46536741 9.30255309 1.65758585 14 5 C17.47253841 9.81674683 17.34198476 14.30025408 17 20 C15.515 20.495 15.515 20.495 14 21 C14 21.99 14 22.98 14 24 C7.72874809 27.02363931 1.45198278 29.20370642 -5.23828125 31.07299805 C-10.692241 32.6697517 -15.22125473 34.68918464 -18.7890625 39.32421875 C-20.21644835 42.47828104 -20.79580343 45.40125789 -21.375 48.8125 C-23.68500645 59.95624973 -27.73339037 64.18019284 -36.921875 70.77734375 C-44.20430252 76.03584789 -49.54999703 80.59999276 -53 89 C-54.4606285 86.35261084 -55 85.10551666 -55 82 C-58.465 82.495 -58.465 82.495 -62 83 C-59.67852661 79.80797409 -57.22106983 77.29826014 -54.1875 74.8125 C-44.22421367 66.21962852 -39.81837164 54.82184259 -35.9375 42.5625 C-33.97515968 36.61342875 -32.02025516 32.94494683 -26.4375 29.875 C-19.7045809 26.78284456 -12.60741768 25.21620652 -5.3125 24.125 C-0.11341321 23.24481027 3.94122324 21.38593142 8 18 C9.41000664 15.17998673 9.24548451 13.12992745 9 10 C7.06186883 5.37001997 4.54783582 3.92019735 0 2 C0 1.34 0 0.68 0 0 Z " fill="#FCA304" transform="translate(99,10)"/>
<path d="M0 0 C3.15345285 4.73017927 4.51430517 9.36920998 4.39453125 15.03125 C3.66883098 18.6525662 1.63492626 20.49054642 -1 23 C-1.66 23 -2.32 23 -3 23 C5.16517325 44.26261163 5.16517325 44.26261163 20 61 C20 61.33 20 61.66 20 62 C5.15 62 -9.7 62 -25 62 C-26.71113627 56.86659118 -27.56699547 54.19745848 -27 49 C-24.87335774 45.20902901 -22.08620337 43.34301813 -18.5 41.0625 C-11.40978812 36.46313053 -9.33360009 30.44694171 -6.30078125 22.83203125 C-5.14682086 20.31965503 -4.11476829 18.68124362 -2.25 16.6875 C0.54881506 13.34447091 0.8484202 11.32002419 1 7 C0.7397104 4.65739357 0.42579972 2.3182429 0 0 Z " fill="#FB5903" transform="translate(143,117)"/>
<path d="M0 0 C3 2 3 2 3.875 4.625 C4.01785906 8.48219452 3.12720868 10.73653609 1.49609375 14.16796875 C1.33238281 14.77253906 1.16867188 15.37710938 1 16 C1.66 16.99 2.32 17.98 3 19 C3.16015625 21.234375 3.16015625 21.234375 3.0625 23.75 C2.97234984 27.01438471 3.1013516 29.50675802 3.75 32.75 C4.08807638 37.144993 2.670873 38.55597955 0 42 C-2.74965762 46.06395937 -5.1102546 50.09113503 -7 54.625 C-10.10086109 61.77046252 -14.59102668 65.68851312 -21.109375 69.703125 C-23.13643872 70.86903788 -23.13643872 70.86903788 -24 73 C-24.15725856 77.16735187 -23.98317108 80.94441928 -23 85 C-28.06553145 83.00996979 -30.58025999 79.19324894 -32.75 74.375 C-34 71 -34 71 -34 68 C-33.01 67.505 -33.01 67.505 -32 67 C-31.38479304 64.71573609 -31.38479304 64.71573609 -31 62.0625 C-30.21955403 57.21955403 -30.21955403 57.21955403 -28 55 C-27.39286197 53.14516546 -26.85868948 51.26578615 -26.375 49.375 C-25.98441406 47.87066406 -25.98441406 47.87066406 -25.5859375 46.3359375 C-25.39257812 45.56507813 -25.19921875 44.79421875 -25 44 C-24.34 44 -23.68 44 -23 44 C-22.3125 46.75 -22.3125 46.75 -22 50 C-23.375 52 -23.375 52 -25 54 C-25.72045367 57.15118325 -25.72045367 57.15118325 -26 60 C-22.52451159 59.46022435 -22.52451159 59.46022435 -19 58 C-17.46853622 54.99405579 -17.46853622 54.99405579 -17 52 C-17.495 51.505 -17.495 51.505 -18 51 C-18.12375 51.94875 -18.2475 52.8975 -18.375 53.875 C-19 57 -19 57 -21 59 C-23.125 58.625 -23.125 58.625 -25 58 C-24.67 57.01 -24.34 56.02 -24 55 C-22.515 54.505 -22.515 54.505 -21 54 C-21.00523682 53.28344238 -21.01047363 52.56688477 -21.01586914 51.82861328 C-21.03660667 48.59408438 -21.04964984 45.35956944 -21.0625 42.125 C-21.07506836 40.43310547 -21.07506836 40.43310547 -21.08789062 38.70703125 C-21.09111328 37.63066406 -21.09433594 36.55429688 -21.09765625 35.4453125 C-21.10289307 34.45031738 -21.10812988 33.45532227 -21.11352539 32.43017578 C-21 30 -21 30 -20 28 C-19.34 28 -18.68 28 -18 28 C-17.319375 29.423125 -17.319375 29.423125 -16.625 30.875 C-15.19761746 34.00313679 -15.19761746 34.00313679 -13 36 C-10.42938689 36.64767793 -10.42938689 36.64767793 -8 37 C-7.67 35.68 -7.34 34.36 -7 33 C-6.67 33.66 -6.34 34.32 -6 35 C-5.83147753 33.39602723 -5.66525114 31.7918131 -5.5 30.1875 C-5.36078125 28.84751953 -5.36078125 28.84751953 -5.21875 27.48046875 C-4.95607599 24.91694901 -4.95607599 24.91694901 -5 22 C-5.66 21.34 -6.32 20.68 -7 20 C-6.75704021 14.77636459 -4.68742135 11.33455057 -2 7 C-1.34 7 -0.68 7 0 7 C0 4.69 0 2.38 0 0 Z " fill="#FC9808" transform="translate(141,93)"/>
<path d="M0 0 C0.495 2.97 0.495 2.97 1 6 C0.34 5.01 -0.32 4.02 -1 3 C-2.51183707 6.98348545 -4.02346612 10.96704975 -5.53491211 14.95068359 C-6.04787738 16.3025927 -6.56089703 17.65448117 -7.07397461 19.00634766 C-9.72813778 25.99969288 -12.38140086 32.99323642 -15 40 C-24.46548234 38.78540271 -33.97459308 35.5580982 -40.8125 28.625 C-42.88421776 25.81557859 -43.00777372 24.8814507 -43.25 21.1875 C-41.77501904 14.38398422 -37.77524433 7.87104229 -32 4 C-31.34 4.33 -30.68 4.66 -30 5 C-30.5775 5.886875 -31.155 6.77375 -31.75 7.6875 C-34.78377744 13.09313979 -37.12399625 18.844298 -38 25 C-36.91481515 28.26142042 -35.8844424 28.89676075 -33 31 C-31.68 31 -30.36 31 -29 31 C-29.00902344 30.3709375 -29.01804687 29.741875 -29.02734375 29.09375 C-28.76719425 21.58334706 -26.36128648 18.0791135 -21 13 C-20.236875 12.21625 -19.47375 11.4325 -18.6875 10.625 C-18.130625 10.08875 -17.57375 9.5525 -17 9 C-16.34 8.34 -15.68 7.68 -15 7 C-14.67 8.32 -14.34 9.64 -14 11 C-13.18595703 10.06027344 -13.18595703 10.06027344 -12.35546875 9.1015625 C-11.28232422 7.87566406 -11.28232422 7.87566406 -10.1875 6.625 C-9.47980469 5.81289062 -8.77210937 5.00078125 -8.04296875 4.1640625 C-5.38428444 1.34778887 -3.95246139 0 0 0 Z " fill="#E86602" transform="translate(92,92)"/>
<path d="M0 0 C0.66 0 1.32 0 2 0 C0.42006165 5.17070733 -2.19315438 7.47215001 -6.89453125 10.03125 C-8.91612327 11.05170945 -10.95416284 12.02923021 -13 13 C-14.6396875 13.8353125 -14.6396875 13.8353125 -16.3125 14.6875 C-19 16 -19 16 -22 17 C-23.91499255 20.52655319 -24.39518961 24.13546308 -24.93579102 28.07885742 C-25.98718108 35.55295819 -26.95790599 41.89635889 -33 47 C-36.73511627 49.7208993 -40.73539533 51.8152229 -44.82275391 53.95361328 C-46.13663079 54.64136373 -47.44968273 55.33069212 -48.76196289 56.02148438 C-50.0521002 56.69705179 -51.3466668 57.36425192 -52.64624023 58.02148438 C-58.62717149 61.11641175 -63.32115972 65.14120433 -68 70 C-64.75189143 58.63162002 -56.43530839 51.74048319 -46.6875 45.5625 C-40.60582463 41.40939359 -37.88953811 36.27908529 -36.40234375 29.125 C-36.09804655 27.24296018 -35.79838473 25.3601636 -35.50390625 23.4765625 C-34.63676907 19.21481852 -32.83678677 16.40175104 -29.38061523 13.76416016 C-24.05757814 10.3037378 -18.78559167 8.42416244 -12.6875 6.75 C-10.92057093 6.24479862 -9.15364376 5.73959058 -7.38671875 5.234375 C-6.61545654 5.02006836 -5.84419434 4.80576172 -5.04956055 4.58496094 C-3.35314677 4.10079091 -1.6736237 3.55787457 0 3 C0 2.01 0 1.02 0 0 Z " fill="#E87905" transform="translate(113,31)"/>
<path d="M0 0 C8.04456097 0.70436248 16.01350895 1.81468505 24 3 C25.25553395 6.52865792 24.7513358 8.36823734 23.3125 11.7734375 C22.94382813 12.6809375 22.57515625 13.5884375 22.1953125 14.5234375 C21.40122205 16.41783629 20.6043649 18.31107783 19.8046875 20.203125 C19.43601563 21.11320312 19.06734375 22.02328125 18.6875 22.9609375 C18.34074219 23.78384277 17.99398437 24.60674805 17.63671875 25.45458984 C16.68209302 28.55213487 16.68209302 28.55213487 18 34 C2.49 34 -13.02 34 -29 34 C-29 33.34 -29 32.68 -29 32 C-27.6582154 31.0710722 -26.30800985 30.15276036 -24.92578125 29.28515625 C-21.78154632 27.18687371 -18.88940331 24.7676122 -15.953125 22.390625 C-14 21 -14 21 -12 21 C-13.01620005 24.04860014 -13.77391571 24.86666922 -16 27 C-16.33 27.66 -16.66 28.32 -17 29 C-18.32 28.67 -19.64 28.34 -21 28 C-21.33 29.32 -21.66 30.64 -22 32 C-19.02934491 31.65772428 -19.02934491 31.65772428 -16 31 C-15.67 30.34 -15.34 29.68 -15 29 C-13.06640625 28.32421875 -13.06640625 28.32421875 -10.5625 27.6875 C-4.97562853 26.11294538 -0.11692301 23.69544304 5 21 C6.134375 20.484375 7.26875 19.96875 8.4375 19.4375 C11.16835111 17.90555913 12.21693894 16.51249513 14 14 C14.66 13.690625 15.32 13.38125 16 13.0625 C18.66403703 11.86772505 18.66403703 11.86772505 21 7 C13.08 7 5.16 7 -3 7 C-2.01 4.69 -1.02 2.38 0 0 Z " fill="#DF1301" transform="translate(44,145)"/>
<path d="M0 0 C0 3.97378549 -1.34753657 5.12649795 -4 8 C-5.32467746 8.6837045 -6.65863633 9.34964186 -8 10 C-8.66 10.763125 -9.32 11.52625 -10 12.3125 C-13.32152977 15.82028377 -17.707332 17.14559629 -22.125 18.8671875 C-25.13916215 20.00201985 -25.13916215 20.00201985 -28.4375 21.75 C-31.0335174 23.01634995 -33.16621641 23.51618329 -36 24 C-38.33762223 24.65146849 -40.67190457 25.31526605 -43 26 C-42.67 24.68 -42.34 23.36 -42 22 C-40.68 22.33 -39.36 22.66 -38 23 C-37.731875 22.236875 -37.46375 21.47375 -37.1875 20.6875 C-36.05575888 18.12619116 -35.08776599 16.80307062 -33 15 C-35.475 16.485 -35.475 16.485 -38 18 C-37.34 16.02 -36.68 14.04 -36 12 C-35.34 12 -34.68 12 -34 12 C-34 10.68 -34 9.36 -34 8 C-33.34 8 -32.68 8 -32 8 C-32 6.68 -32 5.36 -32 4 C-22.31709027 -1.27352979 -10.67853894 -0.22533845 0 0 Z " fill="#FB2F02" transform="translate(65,151)"/>
<path d="M0 0 C0.66 0.33 1.32 0.66 2 1 C1.67 1.66 1.34 2.32 1 3 C2.32 3.33 3.64 3.66 5 4 C3 7 3 7 1.125 7.75 C-2.19901865 9.70530509 -3.24267581 12.61087479 -5 16 C-4.34 16 -3.68 16 -3 16 C-2.319375 15.2575 -2.319375 15.2575 -1.625 14.5 C0 13 0 13 4 13 C4.99 12.34 5.98 11.68 7 11 C7.99 11.33 8.98 11.66 10 12 C6.50640535 15.59634744 2.88901869 18.83451967 -1 22 C-1.33 21.01 -1.66 20.02 -2 19 C-3.69422525 20.6443951 -5.35028928 22.31172461 -7 24 C-7.52722656 24.50789063 -8.05445312 25.01578125 -8.59765625 25.5390625 C-13.11444259 30.22231517 -14.25441264 34.61108763 -15 41 C-16.98 41.495 -16.98 41.495 -19 42 C-21.72481311 39.98568924 -23.59077476 38.10739235 -25 35 C-24.18203007 27.75642186 -20.94425855 21.0572542 -17 15 C-17.99 14.67 -18.98 14.34 -20 14 C-6.64290959 2.54036543 -6.64290959 2.54036543 0 0 Z " fill="#FB8D04" transform="translate(78,82)"/>
<path d="M0 0 C3.15345285 4.73017927 4.51430517 9.36920998 4.39453125 15.03125 C3.66883098 18.6525662 1.63492626 20.49054642 -1 23 C-1.66 23 -2.32 23 -3 23 C-2.71125 23.69867188 -2.4225 24.39734375 -2.125 25.1171875 C-1.75375 26.02726562 -1.3825 26.93734375 -1 27.875 C-0.62875 28.77992188 -0.2575 29.68484375 0.125 30.6171875 C1 33 1 33 1 35 C0.34 35 -0.32 35 -1 35 C-1.11601562 36.11375 -1.11601562 36.11375 -1.234375 37.25 C-2.19037537 40.68379726 -3.51881794 41.75717499 -6.25 44 C-7.06210938 44.68578125 -7.87421875 45.3715625 -8.7109375 46.078125 C-9.46632812 46.71234375 -10.22171875 47.3465625 -11 48 C-16.9616514 53.62856964 -16.9616514 53.62856964 -20 61 C-18.85934082 60.9592334 -17.71868164 60.9184668 -16.54345703 60.87646484 C-12.32078115 60.72825429 -8.09776522 60.59351454 -3.87451172 60.46289062 C-2.04496291 60.40440745 -0.21552788 60.34224668 1.61376953 60.27636719 C4.23969815 60.18243153 6.86574886 60.10162873 9.4921875 60.0234375 C10.72350906 59.97514297 10.72350906 59.97514297 11.97970581 59.9258728 C13.9859173 59.87266885 15.99441169 59.92698805 18 60 C18.66 60.66 19.32 61.32 20 62 C5.15 62 -9.7 62 -25 62 C-26.71113627 56.86659118 -27.56699547 54.19745848 -27 49 C-24.87335774 45.20902901 -22.08620337 43.34301813 -18.5 41.0625 C-11.40978812 36.46313053 -9.33360009 30.44694171 -6.30078125 22.83203125 C-5.14682086 20.31965503 -4.11476829 18.68124362 -2.25 16.6875 C0.54881506 13.34447091 0.8484202 11.32002419 1 7 C0.7397104 4.65739357 0.42579972 2.3182429 0 0 Z " fill="#E96C05" transform="translate(143,117)"/>
<path d="M0 0 C0 0.66 0 1.32 0 2 C-8.17546513 7.00538682 -15.49435633 8.29587825 -25 9 C-25.66 12.96 -26.32 16.92 -27 21 C-27.33 20.34 -27.66 19.68 -28 19 C-28.66 19 -29.32 19 -30 19 C-30.1546875 20.299375 -30.1546875 20.299375 -30.3125 21.625 C-31 25 -31 25 -32.5 27.875 C-34.34264507 31.71384389 -34.63582787 34.77560326 -35 39 C-35.66 39 -36.32 39 -37 39 C-37 38.01 -37 37.02 -37 36 C-37.66 36 -38.32 36 -39 36 C-39.02471738 40.78718692 -39.04286825 45.5743367 -39.05493164 50.36157227 C-39.05996065 51.99015958 -39.06678465 53.61874237 -39.07543945 55.24731445 C-39.08756769 57.58806472 -39.09324263 59.9287553 -39.09765625 62.26953125 C-39.10281754 62.99775589 -39.10797882 63.72598053 -39.11329651 64.47627258 C-39.11364279 67.59602288 -38.99455604 70.01633188 -38 73 C-38.99 73.99 -38.99 73.99 -40 75 C-43.01741716 68.44039748 -43.69149237 62.41182464 -43.91943359 55.22558594 C-43.97722555 53.62912697 -44.05546306 52.0333581 -44.14697266 50.43847656 C-45.03728225 34.55987556 -43.3767495 24.51178867 -33 12 C-33.54269531 12.40992187 -34.08539063 12.81984375 -34.64453125 13.2421875 C-35.35996094 13.78101562 -36.07539062 14.31984375 -36.8125 14.875 C-37.87404297 15.67550781 -37.87404297 15.67550781 -38.95703125 16.4921875 C-40.60456297 17.70814781 -42.29624211 18.86416141 -44 20 C-41.2971041 13.97046299 -36.53566209 10.44149714 -30.5625 7.8125 C-25.43881011 5.91076234 -20.18232967 4.95797642 -14.79711914 4.1262207 C-9.95945949 3.34428565 -4.68172703 0 0 0 Z " fill="#E27902" transform="translate(142,54)"/>
<path d="M0 0 C5.70075081 0.46536741 9.30255309 1.65758585 14 5 C17.47253841 9.81674683 17.34198476 14.30025408 17 20 C16.01 20.33 15.02 20.66 14 21 C14 21.99 14 22.98 14 24 C7.72874809 27.02363931 1.45198278 29.20370642 -5.23828125 31.07299805 C-10.68553307 32.66778783 -15.21610735 34.68406919 -18.78125 39.3125 C-20.23560836 42.51954664 -20.87303609 45.53677076 -21.5 49 C-22.34368853 53.66037472 -23.32045054 57.06999412 -26 61 C-27 59 -27 59 -26.546875 57.2578125 C-26.28390625 56.55398437 -26.0209375 55.85015625 -25.75 55.125 C-24.40609318 51.36692572 -23.43278764 47.64465739 -22.5625 43.75 C-21.49553161 39.30051478 -20.37664083 36.26020494 -17 33 C-17.99 33 -18.98 33 -20 33 C-20 32.01 -20 31.02 -20 30 C-21.65 30 -23.3 30 -25 30 C-19.22020795 26.1468053 -12.10366533 25.12899376 -5.3125 24.125 C-0.11341321 23.24481027 3.94122324 21.38593142 8 18 C9.41000664 15.17998673 9.24548451 13.12992745 9 10 C7.06186883 5.37001997 4.54783582 3.92019735 0 2 C0 1.34 0 0.68 0 0 Z " fill="#F7B321" transform="translate(99,10)"/>
<path d="M0 0 C0 0.66 0 1.32 0 2 C0.66 2 1.32 2 2 2 C4.52522269 4.52522269 5.84480219 6.40507505 6.75 9.875 C5.71287914 14.19633693 3.34515676 15.94431906 0.04296875 18.77734375 C-0.96830078 19.38255859 -0.96830078 19.38255859 -2 20 C-2.99 19.67 -3.98 19.34 -5 19 C-4.34 18.67 -3.68 18.34 -3 18 C-2.53476937 16.10466658 -2.53476937 16.10466658 -2.375 13.9375 C-2.25125 12.638125 -2.1275 11.33875 -2 10 C-5.19771446 7.17125259 -7.72003296 6.17469253 -12 6 C-14.92935754 7.26494985 -16.52170845 8.29395057 -18.3125 10.9375 C-19.21081851 13.27011122 -19.21081851 13.27011122 -19 17 C-19.66 17 -20.32 17 -21 17 C-21 13.04 -21 9.08 -21 5 C-22.98 5.33 -24.96 5.66 -27 6 C-20.49449807 -3.25782966 -10.10903773 -4.37147578 0 0 Z " fill="#F2B71B" transform="translate(152,2)"/>
<path d="M0 0 C2.80351245 1.40175622 2.85470443 3.11842004 4 6 C5.16171382 7.74659515 6.35092918 9.47511285 7.5625 11.1875 C10.94079671 16.45990449 12.69145777 20.69785633 12 27 C10.53334566 32.6570953 8.99668316 36.72848745 4 40 C3.67 39.34 3.34 38.68 3 38 C3.99 37.34 4.98 36.68 6 36 C6.72382467 33.94074861 6.72382467 33.94074861 7 32 C7.66 32 8.32 32 9 32 C9 30.68 9 29.36 9 28 C7.35 28.33 5.7 28.66 4 29 C4 28.34 4 27.68 4 27 C3.236875 27.515625 2.47375 28.03125 1.6875 28.5625 C0.800625 29.036875 -0.08625 29.51125 -1 30 C-1.99 29.67 -2.98 29.34 -4 29 C-3.51031738 28.28811523 -3.02063477 27.57623047 -2.51611328 26.84277344 C-0.84478684 23.70896907 -0.65896451 22.02556999 -0.7421875 18.515625 C-0.75636719 17.49855469 -0.77054688 16.48148438 -0.78515625 15.43359375 C-0.81480469 14.38300781 -0.84445313 13.33242188 -0.875 12.25 C-0.91814502 10.15112162 -0.95742643 8.05215898 -0.9921875 5.953125 C-1.01651855 5.02661133 -1.04084961 4.10009766 -1.06591797 3.14550781 C-1 1 -1 1 0 0 Z " fill="#F7B60E" transform="translate(138,15)"/>
<path d="M0 0 C8.04456097 0.70436248 16.01350895 1.81468505 24 3 C25.25132186 6.52507142 24.75331777 8.39341849 23.34765625 11.80859375 C22.98349609 12.72060547 22.61933594 13.63261719 22.24414062 14.57226562 C21.85419922 15.51779297 21.46425781 16.46332031 21.0625 17.4375 C20.29559796 19.30802401 19.53620016 21.18164626 18.78515625 23.05859375 C18.44363525 23.88673584 18.10211426 24.71487793 17.75024414 25.56811523 C16.94716677 28.17125668 16.86211616 30.29210623 17 33 C15.515 32.505 15.515 32.505 14 32 C14 31.34 14 30.68 14 30 C13.01 29.67 12.02 29.34 11 29 C11.165 28.236875 11.33 27.47375 11.5 26.6875 C12.09145396 23.96403764 12.09145396 23.96403764 12 21 C12.66 21 13.32 21 14 21 C13.34 19.35 12.68 17.7 12 16 C12.928125 15.443125 13.85625 14.88625 14.8125 14.3125 C18.44893627 11.99211796 18.44893627 11.99211796 21 7 C13.08 7 5.16 7 -3 7 C-2.01 4.69 -1.02 2.38 0 0 Z " fill="#DF2104" transform="translate(44,145)"/>
<path d="M0 0 C0.33 0 0.66 0 1 0 C1.103125 1.258125 1.20625 2.51625 1.3125 3.8125 C2.20011888 11.77606659 4.72079444 19.28025654 7.3203125 26.82421875 C8.0055528 29.01777534 8.4877529 31.18481937 8.9375 33.4375 C9.81957682 37.67146872 11.32558201 41.46385481 12.98046875 45.44921875 C15.40414565 51.51305407 17.52182943 57.39016052 17 64 C15.35 64 13.7 64 12 64 C10.8754283 60.62628491 11.18358044 58.42896214 12 55 C12.33944795 53.00102872 12.67421616 51.00124361 13 49 C12.34 49 11.68 49 11 49 C10.9175 48.38125 10.835 47.7625 10.75 47.125 C10.5025 46.42375 10.255 45.7225 10 45 C9.34 44.690625 8.68 44.38125 8 44.0625 C7.01 43.5365625 7.01 43.5365625 6 43 C5.25 40.375 5.25 40.375 5 38 C5.66 38 6.32 38 7 38 C6.690625 37.443125 6.38125 36.88625 6.0625 36.3125 C4.94238179 33.87459567 4.43962636 31.63775814 4 29 C3.34 29 2.68 29 2 29 C2.02320312 28.39671875 2.04640625 27.7934375 2.0703125 27.171875 C2.08835937 26.37265625 2.10640625 25.5734375 2.125 24.75 C2.14820312 23.96109375 2.17140625 23.1721875 2.1953125 22.359375 C1.9828378 19.79268059 1.28654105 18.2083933 0 16 C-1.65 16.33 -3.3 16.66 -5 17 C-6.46726798 13.18510326 -5.43336419 10.70988378 -4 7 C-3.34 7 -2.68 7 -2 7 C-1.34 4.69 -0.68 2.38 0 0 Z " fill="#F4AB30" transform="translate(116,66)"/>
<path d="M0 0 C-1.875 5.75 -1.875 5.75 -3 8 C-3.10455838 9.43880254 -3.15514727 10.88176964 -3.17578125 12.32421875 C-3.19962891 13.18853516 -3.22347656 14.05285156 -3.24804688 14.94335938 C-3.2905515 16.75302588 -3.32205079 18.56298898 -3.34179688 20.37304688 C-3.53383796 26.40670991 -4.50845887 30.04005372 -8 35 C-13.28952778 39.51165605 -21.26815237 40.15627503 -28 40 C-25.82813579 37.82813579 -24.50023469 37.3206752 -21.625 36.375 C-20.85414062 36.11460938 -20.08328125 35.85421875 -19.2890625 35.5859375 C-17 35 -17 35 -13 35 C-12.67 34.01 -12.34 33.02 -12 32 C-11.34 32 -10.68 32 -10 32 C-9.8007463 22.4998655 -9.8007463 22.4998655 -10.6875 13.0625 C-11.27891974 8.53391458 -10.32395572 5.92668381 -8 2 C-5.06232446 -0.17956572 -3.81436472 0 0 0 Z " fill="#F2B51F" transform="translate(132,6)"/>
<path d="M0 0 C0.99 0 1.98 0 3 0 C3.99 2.97 4.98 5.94 6 9 C5.34 9 4.68 9 4 9 C3.88398438 10.11375 3.88398438 10.11375 3.765625 11.25 C2.80962463 14.68379726 1.48118206 15.75717499 -1.25 18 C-2.06210938 18.68578125 -2.87421875 19.3715625 -3.7109375 20.078125 C-4.46632812 20.71234375 -5.22171875 21.3465625 -6 22 C-11.9616514 27.62856964 -11.9616514 27.62856964 -15 35 C-13.85934082 34.9592334 -12.71868164 34.9184668 -11.54345703 34.87646484 C-7.32078115 34.72825429 -3.09776522 34.59351454 1.12548828 34.46289062 C2.95503709 34.40440745 4.78447212 34.34224668 6.61376953 34.27636719 C9.23969815 34.18243153 11.86574886 34.10162873 14.4921875 34.0234375 C15.72350906 33.97514297 15.72350906 33.97514297 16.97970581 33.9258728 C18.9859173 33.87266885 20.99441169 33.92698805 23 34 C23.66 34.66 24.32 35.32 25 36 C10.15 36 -4.7 36 -20 36 C-17.48403256 24.67814652 -17.48403256 24.67814652 -13 21 C-11.30727141 19.99409739 -9.59744515 19.01662413 -7.875 18.0625 C-4.36138259 16.04949002 -3.09368455 15.14879312 -0.875 11.625 C0.11761618 7.51273296 0.22168559 4.21202619 0 0 Z " fill="#CF400B" transform="translate(138,143)"/>
<path d="M0 0 C5.70075081 0.46536741 9.30255309 1.65758585 14 5 C17.47253841 9.81674683 17.34198476 14.30025408 17 20 C16.01 20.33 15.02 20.66 14 21 C14 21.99 14 22.98 14 24 C10.14243493 26.15305957 7.44870215 27.39253254 3 27 C3.66 25.35 4.32 23.7 5 22 C6.32 22 7.64 22 9 22 C9.08160748 20.10489301 9.13946459 18.20875496 9.1875 16.3125 C9.22230469 15.25675781 9.25710937 14.20101563 9.29296875 13.11328125 C8.9604059 9.57924672 8.13604734 7.80850669 6 5 C2.93319201 3.17370206 2.93319201 3.17370206 0 2 C0 1.34 0 0.68 0 0 Z " fill="#EEA00E" transform="translate(99,10)"/>
<path d="M0 0 C0.66 0.33 1.32 0.66 2 1 C1.67 1.33 1.34 1.66 1 2 C2.32 2.66 3.64 3.32 5 4 C3.98679687 4.8353125 3.98679687 4.8353125 2.953125 5.6875 C-2.57497728 10.41674357 -6.2892856 14.22321401 -9 21 C-10.4606285 18.35261084 -11 17.10551666 -11 14 C-13.31 14.33 -15.62 14.66 -18 15 C-13.36772427 8.43760938 -6.64240342 4.31756222 0 0 Z " fill="#FB8E04" transform="translate(55,78)"/>
<path d="M0 0 C-4.26935393 2.90983899 -8.37971118 5.23686874 -13.25 7 C-18.21947426 8.87786585 -20.61585809 11.23171618 -23 16 C-23.66 16 -24.32 16 -25 16 C-24.979375 16.7425 -24.95875 17.485 -24.9375 18.25 C-24.99328688 20.70462279 -25.3069904 22.66109261 -26 25 C-27.32 24.67 -28.64 24.34 -30 24 C-30 22.02 -30 20.04 -30 18 C-29.01 17.67 -28.02 17.34 -27 17 C-27.66 16.01 -28.32 15.02 -29 14 C-27.41185945 9.9502416 -26.27097214 7.73377718 -22.44921875 5.52734375 C-4.32184211 -2.16092105 -4.32184211 -2.16092105 0 0 Z " fill="#E88207" transform="translate(109,37)"/>
<path d="M0 0 C1.1446875 0.2475 1.1446875 0.2475 2.3125 0.5 C5.03596236 1.09145396 5.03596236 1.09145396 8 1 C8.33 1.99 8.66 2.98 9 4 C9.99 3.67 10.98 3.34 12 3 C14.15625 3.671875 14.15625 3.671875 16.5 4.75 C17.66015625 5.26820313 17.66015625 5.26820313 18.84375 5.796875 C20.99244137 6.9957825 22.4420964 8.10255331 24 10 C24 10.66 24 11.32 24 12 C24.66 12.66 25.32 13.32 26 14 C16.90491572 13.41322037 8.08071451 10.99137382 1 5 C0.125 2.25 0.125 2.25 0 0 Z " fill="#FA6405" transform="translate(39,127)"/>
<path d="M0 0 C0 0.66 0 1.32 0 2 C-8.12458688 6.97423686 -15.56561997 8.35170625 -25 9 C-25 9.99 -25 10.98 -25 12 C-25.86625 12.185625 -26.7325 12.37125 -27.625 12.5625 C-31.99079289 14.42200438 -34.34777648 17.12101511 -37 21 C-37.33 21.99 -37.66 22.98 -38 24 C-38.66 24 -39.32 24 -40 24 C-38.64994369 18.32976351 -36.1842771 15.82042691 -32 12 C-36.34170523 14.3836813 -40.2064129 16.78119883 -44 20 C-41.2971041 13.97046299 -36.53566209 10.44149714 -30.5625 7.8125 C-25.43881011 5.91076234 -20.18232967 4.95797642 -14.79711914 4.1262207 C-9.95945949 3.34428565 -4.68172703 0 0 0 Z " fill="#C35310" transform="translate(142,54)"/>
<path d="M0 0 C0.66 0.33 1.32 0.66 2 1 C1.4225 1.886875 0.845 2.77375 0.25 3.6875 C-2.78271561 9.09124781 -5.12978905 14.84523528 -6 21 C-4.56274447 24.98579112 -1.44514617 26.70323589 2 29 C2 29.66 2 30.32 2 31 C-3.40358736 29.94564149 -6.32926493 27.36206378 -9.6953125 23.203125 C-11.32071826 20.45842785 -11.58134973 18.27558572 -10.8515625 15.15234375 C-8.4590817 9.10529364 -5.47208593 3.66784068 0 0 Z " fill="#F05D07" transform="translate(60,96)"/>
<path d="M0 0 C0.33 0.66 0.66 1.32 1 2 C0.0390625 3.83984375 0.0390625 3.83984375 -1.375 5.9375 C-5.03809258 11.41167467 -5.27327038 16.31497399 -5.51757812 22.7265625 C-5.60881644 24.48935555 -5.79703561 26.24655504 -6 28 C-6.66 28.33 -7.32 28.66 -8 29 C-8.66 28.34 -9.32 27.68 -10 27 C-10.66 26.67 -11.32 26.34 -12 26 C-12 26.99 -12 27.98 -12 29 C-12.66 29 -13.32 29 -14 29 C-13.94794342 17.00095939 -8.14284854 8.40785249 0 0 Z " fill="#D13D07" transform="translate(31,86)"/>
<path d="M0 0 C8.04456097 0.70436248 16.01350895 1.81468505 24 3 C24.33 4.32 24.66 5.64 25 7 C15.76 7 6.52 7 -3 7 C-2.01 4.69 -1.02 2.38 0 0 Z " fill="#B71201" transform="translate(44,145)"/>
<path d="M0 0 C-1.875 5.75 -1.875 5.75 -3 8 C-3.1279017 9.47329803 -3.20198888 10.95150595 -3.24609375 12.4296875 C-3.27896484 13.30753906 -3.31183594 14.18539063 -3.34570312 15.08984375 C-3.40663971 16.93868555 -3.46396298 18.78765015 -3.51757812 20.63671875 C-3.55173828 21.51714844 -3.58589844 22.39757812 -3.62109375 23.3046875 C-3.6461499 24.10890137 -3.67120605 24.91311523 -3.69702148 25.74169922 C-4.02561791 28.19094739 -4.77971891 29.86702555 -6 32 C-6.33 31.01 -6.66 30.02 -7 29 C-6.67 28.34 -6.34 27.68 -6 27 C-5.78622279 21.39296787 -5.78622279 21.39296787 -7 16 C-7.66 16.33 -8.32 16.66 -9 17 C-11.40488579 12.04876456 -10.72804988 9.408165 -9.1875 4.3125 C-7.01042508 0.07293305 -4.58607068 0 0 0 Z " fill="#F7C422" transform="translate(132,6)"/>
<path d="M0 0 C2.31 0.66 4.62 1.32 7 2 C6.814375 2.94875 6.62875 3.8975 6.4375 4.875 C5.71313368 7.89868793 5.71313368 7.89868793 7 10 C3.7 10.66 0.4 11.32 -3 12 C-3 13.32 -3 14.64 -3 16 C-3.66 16 -4.32 16 -5 16 C-5 17.32 -5 18.64 -5 20 C-5.66 20 -6.32 20 -7 20 C-7.0825 20.5775 -7.165 21.155 -7.25 21.75 C-8.20531013 24.6159304 -9.78469173 25.9990764 -12 28 C-10.52251501 24.19371725 -8.8620051 20.50701085 -7.125 16.8125 C-4.55291354 11.27747081 -2.18640994 5.69752708 0 0 Z " fill="#D64409" transform="translate(36,143)"/>
<path d="M0 0 C0.33 0 0.66 0 1 0 C1.103125 1.258125 1.20625 2.51625 1.3125 3.8125 C1.92764438 9.39273834 3.41666297 14.62796366 5 20 C5.39666859 21.3955962 5.79264083 22.79139078 6.1875 24.1875 C6.455625 25.115625 6.72375 26.04375 7 27 C6.34 27 5.68 27 5 27 C5.33 27.99 5.66 28.98 6 30 C5.34 30.33 4.68 30.66 4 31 C4 30.34 4 29.68 4 29 C3.34 29 2.68 29 2 29 C2.02320312 28.39671875 2.04640625 27.7934375 2.0703125 27.171875 C2.08835937 26.37265625 2.10640625 25.5734375 2.125 24.75 C2.14820312 23.96109375 2.17140625 23.1721875 2.1953125 22.359375 C1.9828378 19.79268059 1.28654105 18.2083933 0 16 C-1.65 16.33 -3.3 16.66 -5 17 C-6.46726798 13.18510326 -5.43336419 10.70988378 -4 7 C-3.34 7 -2.68 7 -2 7 C-1.34 4.69 -0.68 2.38 0 0 Z " fill="#F7B521" transform="translate(116,66)"/>
<path d="M0 0 C3.15345285 4.73017927 4.51430517 9.36920998 4.39453125 15.03125 C3.66883098 18.6525662 1.63492626 20.49054642 -1 23 C-1.66 23 -2.32 23 -3 23 C-3 23.99 -3 24.98 -3 26 C-3.66 26 -4.32 26 -5 26 C-4.67 28.64 -4.34 31.28 -4 34 C-4.33 33.34 -4.66 32.68 -5 32 C-5.66 32 -6.32 32 -7 32 C-7 32.66 -7 33.32 -7 34 C-7.99 34 -8.98 34 -10 34 C-8.07870058 26.63501888 -5.79180673 21.16907791 -0.6875 15.375 C1.87393647 10.25212705 0.82446422 5.53824875 0 0 Z " fill="#E36D0A" transform="translate(143,117)"/>
<path d="M0 0 C3 2 3 2 3.875 4.625 C4.01785906 8.48219452 3.12720868 10.73653609 1.49609375 14.16796875 C1.33238281 14.77253906 1.16867188 15.37710938 1 16 C1.66 16.99 2.32 17.98 3 19 C1.02 18.67 -0.96 18.34 -3 18 C-2.67 19.65 -2.34 21.3 -2 23 C-2.66 22.34 -3.32 21.68 -4 21 C-4.99 21 -5.98 21 -7 21 C-6.53411505 15.29290936 -5.06242216 11.84060277 -2 7 C-1.34 7 -0.68 7 0 7 C0 4.69 0 2.38 0 0 Z " fill="#CC6E23" transform="translate(141,93)"/>
<path d="M0 0 C3.81538462 2.46153846 3.81538462 2.46153846 4.75 5.1875 C4.87375 6.0846875 4.87375 6.0846875 5 7 C6.32 5.68 7.64 4.36 9 3 C9.75 4.75 9.75 4.75 10 7 C8.69026002 8.3565164 7.35197858 9.68557638 6 11 C4.81418092 13.28764263 3.92748428 15.58854088 3 18 C0.0625 16.875 0.0625 16.875 -3 15 C-3.875 11.8125 -3.875 11.8125 -4 9 C-2.02 9 -0.04 9 2 9 C1.34 6.03 0.68 3.06 0 0 Z " fill="#F87503" transform="translate(104,133)"/>
<path d="M0 0 C0.66 0 1.32 0 2 0 C0.42006165 5.17070733 -2.19315438 7.47215001 -6.89453125 10.03125 C-8.91612327 11.05170945 -10.95416284 12.02923021 -13 13 C-14.6396875 13.8353125 -14.6396875 13.8353125 -16.3125 14.6875 C-19 16 -19 16 -22 17 C-24.34337835 21.53215882 -24.74802774 26.3629509 -25.4375 31.35546875 C-26 34 -26 34 -28 36 C-28.62198595 23.38750712 -28.62198595 23.38750712 -26.375 18.375 C-21.14230022 13.14230022 -15.67351479 10.93048394 -8.8046875 8.34375 C-5.8676499 6.93658992 -4.22519692 5.33398433 -2 3 C-1.34 3 -0.68 3 0 3 C0 2.01 0 1.02 0 0 Z " fill="#B14608" transform="translate(113,31)"/>
<path d="M0 0 C0.99 0 1.98 0 3 0 C3.99 2.97 4.98 5.94 6 9 C5.34 9 4.68 9 4 9 C3.89365234 10.10408203 3.89365234 10.10408203 3.78515625 11.23046875 C2.78172587 14.76993213 1.24258346 15.98151515 -1.5625 18.3125 C-2.38878906 19.00988281 -3.21507812 19.70726562 -4.06640625 20.42578125 C-5.02353516 21.20501953 -5.02353516 21.20501953 -6 22 C-6.99 21.67 -7.98 21.34 -9 21 C-9 20.34 -9 19.68 -9 19 C-8.071875 18.443125 -7.14375 17.88625 -6.1875 17.3125 C-2.29652304 14.48963436 -1.37197878 12.57326258 0 8 C0.21471894 5.27545525 0.14424536 2.74066192 0 0 Z " fill="#D64100" transform="translate(138,143)"/>
<path d="M0 0 C2.475 0.495 2.475 0.495 5 1 C6.0467425 4.40191313 6 7.45757467 6 11 C6.3403125 12.8253125 6.3403125 12.8253125 6.6875 14.6875 C7 18 7 18 5.5625 19.9375 C5.046875 20.288125 4.53125 20.63875 4 21 C3.67 20.34 3.34 19.68 3 19 C2.01 18.67 1.02 18.34 0 18 C0.0721875 17.18015625 0.144375 16.3603125 0.21875 15.515625 C0.3115625 14.43796875 0.404375 13.3603125 0.5 12.25 C0.5928125 11.18265625 0.685625 10.1153125 0.78125 9.015625 C1.25533617 4.37193394 1.25533617 4.37193394 0 0 Z " fill="#FB7C09" transform="translate(138,111)"/>
<path d="M0 0 C1.13529002 3.34491489 0.86633118 5.26065531 -0.3125 8.5625 C-0.70888672 9.70912109 -0.70888672 9.70912109 -1.11328125 10.87890625 C-2 13 -2 13 -4 16 C-4.45772063 18.73872955 -4.45772063 18.73872955 -4.625 21.6875 C-4.73714844 23.17830078 -4.73714844 23.17830078 -4.8515625 24.69921875 C-4.90054688 25.45847656 -4.94953125 26.21773437 -5 27 C-5.33 26.34 -5.66 25.68 -6 25 C-6.99 24.67 -7.98 24.34 -9 24 C-8.52483417 14.79161397 -6.99060909 9.1887309 -1 2 C-0.67 1.34 -0.34 0.68 0 0 Z " fill="#FDB009" transform="translate(115,136)"/>
<path d="M0 0 C3.33577656 1.18366265 6.27149677 2.71643582 9.3125 4.5 C16.76769496 8.65676166 22.96064272 9.22013319 31.4609375 8.97265625 C34 9 34 9 36 10 C36 10.66 36 11.32 36 12 C40.95 12 45.9 12 51 12 C51 12.33 51 12.66 51 13 C34.90664408 13.56633511 16.78021328 13.83484102 3 4 C1.2421875 1.84375 1.2421875 1.84375 0 0 Z " fill="#F98540" transform="translate(38,131)"/>
<path d="M0 0 C-0.33 0.66 -0.66 1.32 -1 2 C-1.99 2 -2.98 2 -4 2 C-4 2.66 -4 3.32 -4 4 C-4.928125 3.773125 -5.85625 3.54625 -6.8125 3.3125 C-9.93884475 2.6505317 -9.93884475 2.6505317 -11.8125 4.3125 C-13.06067349 5.99717798 -13.06067349 5.99717798 -14 8 C-14.66 8 -15.32 8 -16 8 C-16.20625 8.556875 -16.4125 9.11375 -16.625 9.6875 C-18.55000774 12.92501302 -21.03850902 14.68231141 -24 17 C-23.34 15.02 -22.68 13.04 -22 11 C-21.34 11 -20.68 11 -20 11 C-20 9.68 -20 8.36 -20 7 C-19.34 7 -18.68 7 -18 7 C-18 5.68 -18 4.36 -18 3 C-12.30979306 -0.2828117 -6.37621985 -0.10993482 0 0 Z " fill="#FC5C05" transform="translate(51,152)"/>
<path d="M0 0 C0.76183594 -0.00515625 1.52367187 -0.0103125 2.30859375 -0.015625 C4.84539809 0.28333981 6.41180201 0.88012867 8.5625 2.25 C10.85263653 5.6852048 10.74092973 7.235331 10.5625 11.25 C8.5625 10.25 8.5625 10.25 7.25 7.8125 C5.24117455 4.76206135 4.08188429 4.08794864 0.5625 3.25 C-2.64598406 3.40651142 -4.11254716 4.00628537 -6.6875 5.9375 C-8.79011037 8.71594942 -9.12545779 10.81753564 -9.4375 14.25 C-10.0975 14.25 -10.7575 14.25 -11.4375 14.25 C-11.94182107 8.9546288 -10.72507779 6.38295494 -7.4375 2.25 C-4.32763793 0.17675862 -3.54641613 -0.02392186 0 0 Z " fill="#C75A0A" transform="translate(142.4375,4.75)"/>
<path d="M0 0 C0.66 0 1.32 0 2 0 C4.52522269 2.52522269 5.84480219 4.40507505 6.75 7.875 C5.71287914 12.19633693 3.34515676 13.94431906 0.04296875 16.77734375 C-0.63121094 17.18082031 -1.30539063 17.58429687 -2 18 C-2.99 17.67 -3.98 17.34 -5 17 C-4.34 16.67 -3.68 16.34 -3 16 C-2.27840576 14.35636866 -1.60648579 12.68949614 -1 11 C-0.67 11 -0.34 11 0 11 C0.07037402 8.46653542 0.07102638 6.2762137 -0.5625 3.8125 C-1 2 -1 2 0 0 Z " fill="#EFB61E" transform="translate(152,4)"/>
<path d="M0 0 C0.33 1.98 0.66 3.96 1 6 C0.34 5.01 -0.32 4.02 -1 3 C-3.31 8.94 -5.62 14.88 -8 21 C-8.33 21 -8.66 21 -9 21 C-9.25 13.375 -9.25 13.375 -7 10 C-7.99 9.67 -8.98 9.34 -10 9 C-8.42687618 3.85159477 -5.71561212 0 0 0 Z " fill="#E67704" transform="translate(92,92)"/>
<path d="M0 0 C-1.01620005 3.04860014 -1.77391571 3.86666922 -4 6 C-4.33 6.66 -4.66 7.32 -5 8 C-6.32 7.67 -7.64 7.34 -9 7 C-9.33 8.32 -9.66 9.64 -10 11 C-7.02934491 10.65772428 -7.02934491 10.65772428 -4 10 C-3.67 9.34 -3.34 8.68 -3 8 C0.28414305 7.04932701 1.69693408 6.89897803 5 8 C2.54438955 10.80641195 0.72617673 11.93578671 -3.00390625 12.265625 C-6.01123516 12.25142274 -8.99779002 12.17237569 -12 12 C-10.92772145 6.37053761 -8.31212146 4.28258708 -3.875 1.1015625 C-2 0 -2 0 0 0 Z " fill="#DE0605" transform="translate(32,166)"/>
<path d="M0 0 C-0.55664247 3.50534314 -1.56022109 4.77282335 -4.375 6.875 C-7.67929866 9.53472295 -9.38758042 12.01637515 -11 16 C-11.66 16 -12.32 16 -13 16 C-11.64994369 10.32976351 -9.1842771 7.82042691 -5 4 C-9.34170523 6.3836813 -13.2064129 8.78119883 -17 12 C-15.64891639 8.90989789 -14.20982067 7.03089847 -11.625 4.875 C-11.03976563 4.37742187 -10.45453125 3.87984375 -9.8515625 3.3671875 C-6.32450984 0.76282372 -4.49495877 0 0 0 Z " fill="#A72600" transform="translate(115,62)"/>
<path d="M0 0 C3.63 0.66 7.26 1.32 11 2 C11 2.99 11 3.98 11 5 C12.32 5 13.64 5 15 5 C15 5.99 15 6.98 15 8 C13.58376784 8.05447047 12.16691809 8.09300508 10.75 8.125 C9.96109375 8.14820313 9.1721875 8.17140625 8.359375 8.1953125 C5.79268059 7.9828378 4.2083933 7.28654105 2 6 C2 5.01 2 4.02 2 3 C1.34 2.01 0.68 1.02 0 0 Z " fill="#FC6A03" transform="translate(59,133)"/>
<path d="M0 0 C0.33 0 0.66 0 1 0 C1.66 8.58 2.32 17.16 3 26 C1 25 1 25 -0.2890625 21.5078125 C-0.74233968 20.04932651 -1.18730138 18.58823666 -1.625 17.125 C-1.85445313 16.39152344 -2.08390625 15.65804687 -2.3203125 14.90234375 C-3.25673494 11.842249 -4 9.21760772 -4 6 C-3.34 6 -2.68 6 -2 6 C-1.67 6.66 -1.34 7.32 -1 8 C-0.67 5.36 -0.34 2.72 0 0 Z " fill="#F09B14" transform="translate(97,92)"/>
<path d="M0 0 C2.80736541 1.4036827 2.96708362 3.10783413 4 6 C4.33 6.99 4.66 7.98 5 9 C3.68 8.67 2.36 8.34 1 8 C1.03480469 9.18078125 1.06960937 10.3615625 1.10546875 11.578125 C1.13361232 13.13540242 1.16091187 14.69269525 1.1875 16.25 C1.22520508 17.41595703 1.22520508 17.41595703 1.26367188 18.60546875 C1.33834499 24.42997175 1.33834499 24.42997175 -0.51171875 27.546875 C-1.00285156 28.02640625 -1.49398437 28.5059375 -2 29 C-2.66 28.67 -3.32 28.34 -4 28 C-3.51031738 27.45110107 -3.02063477 26.90220215 -2.51611328 26.33666992 C-0.67443269 23.4982279 -0.66310191 21.96749146 -0.7421875 18.61328125 C-0.75636719 17.59298828 -0.77054688 16.57269531 -0.78515625 15.52148438 C-0.82962891 13.93303711 -0.82962891 13.93303711 -0.875 12.3125 C-0.91814977 10.20450678 -0.95743046 8.09642955 -0.9921875 5.98828125 C-1.01651855 5.05540283 -1.04084961 4.12252441 -1.06591797 3.16137695 C-1 1 -1 1 0 0 Z " fill="#EDB426" transform="translate(138,15)"/>
<path d="M0 0 C0.33 0.66 0.66 1.32 1 2 C0.67 2.66 0.34 3.32 0 4 C13.86 3.67 27.72 3.34 42 3 C42 3.66 42 4.32 42 5 C26.49 5 10.98 5 -5 5 C-5 4.34 -5 3.68 -5 3 C-2.5 1.375 -2.5 1.375 0 0 Z " fill="#A50E0A" transform="translate(20,174)"/>
<path d="M0 0 C0.66 0 1.32 0 2 0 C2.680625 1.423125 2.680625 1.423125 3.375 2.875 C4.80238254 6.00313679 4.80238254 6.00313679 7 8 C9.57061311 8.64767793 9.57061311 8.64767793 12 9 C12.33 7.68 12.66 6.36 13 5 C13.625 6.875 13.625 6.875 14 9 C13.34 9.66 12.68 10.32 12 11 C7.41462451 10.74525692 4.41338353 10.14031285 1 7 C0.67 8.98 0.34 10.96 0 13 C-0.33 13 -0.66 13 -1 13 C-1.02696365 11.20841511 -1.04637917 9.41671527 -1.0625 7.625 C-1.07410156 6.62726563 -1.08570312 5.62953125 -1.09765625 4.6015625 C-1 2 -1 2 0 0 Z " fill="#EE7E03" transform="translate(121,121)"/>
<path d="M0 0 C0.33 0.66 0.66 1.32 1 2 C0.0390625 3.83984375 0.0390625 3.83984375 -1.375 5.9375 C-4.22672194 10.1991515 -5.14200963 13.58154553 -5.5625 18.6875 C-5.64628906 19.68136719 -5.73007812 20.67523438 -5.81640625 21.69921875 C-5.87699219 22.45847656 -5.93757813 23.21773437 -6 24 C-6.33 24 -6.66 24 -7 24 C-7 21.36 -7 18.72 -7 16 C-8.32 16.33 -9.64 16.66 -11 17 C-9.42160732 10.1602984 -4.87740434 4.87740434 0 0 Z " fill="#D14C0F" transform="translate(31,86)"/>
<path d="M0 0 C0.66 0.33 1.32 0.66 2 1 C1.67 1.66 1.34 2.32 1 3 C0.01 3 -0.98 3 -2 3 C-1.896875 4.051875 -1.79375 5.10375 -1.6875 6.1875 C-2 10 -2 10 -4.5 12.9375 C-5.325 13.618125 -6.15 14.29875 -7 15 C-7 14.34 -7 13.68 -7 13 C-7.66 12.67 -8.32 12.34 -9 12 C-6.75216109 6.82620318 -4.83454463 3.22302975 0 0 Z " fill="#F4AD15" transform="translate(72,40)"/>
<path d="M0 0 C1.125 3.75 1.125 3.75 0 6 C0.556875 6.20625 1.11375 6.4125 1.6875 6.625 C4.85840149 8.51040088 6.68729479 11.15359359 9 14 C9.99 14.66 10.98 15.32 12 16 C12 16.66 12 17.32 12 18 C6.5939147 16.94515409 3.70637497 14.34332397 0.28125 10.2421875 C-1.85114916 6.51048896 -1.08517339 4.051314 0 0 Z " fill="#E65B10" transform="translate(50,109)"/>
<path d="M0 0 C0.66 0.33 1.32 0.66 2 1 C1.55269531 1.46148437 1.10539062 1.92296875 0.64453125 2.3984375 C-4.07990624 7.49559181 -7.18204303 12.66284331 -10 19 C-10.93423645 15.98968256 -11.04449911 15.13349732 -10 12 C-9.34 12 -8.68 12 -8 12 C-8 11.34 -8 10.68 -8 10 C-8.66 10 -9.32 10 -10 10 C-8.5741914 6.54804233 -6.90253666 4.8985744 -3.875 2.75 C-3.15054688 2.22921875 -2.42609375 1.7084375 -1.6796875 1.171875 C-1.12539062 0.78515625 -0.57109375 0.3984375 0 0 Z " fill="#FDA213" transform="translate(109,65)"/>
<path d="M0 0 C5.70709064 0.46588495 9.15939723 1.93757784 14 5 C13.67 5.66 13.34 6.32 13 7 C12.01 6.67 11.02 6.34 10 6 C10.33 6.99 10.66 7.98 11 9 C11.03954234 11.33299825 11.04401732 13.66708189 11 16 C10.67 16 10.34 16 10 16 C9.773125 14.783125 9.54625 13.56625 9.3125 12.3125 C8.24927123 8.02920697 6.47825152 5.7995683 3 3 C2.01 2.67 1.02 2.34 0 2 C0 1.34 0 0.68 0 0 Z " fill="#EAAF2B" transform="translate(99,10)"/>
<path d="M0 0 C1 1 1 1 1.0625 4.0625 C1.041875 5.031875 1.02125 6.00125 1 7 C-3.49797113 5.31326082 -7.72886302 3.18326108 -12 1 C-12 0.67 -12 0.34 -12 0 C-7.74500059 -1.16045439 -4.31104861 -0.82904781 0 0 Z " fill="#CE490A" transform="translate(106,150)"/>
<path d="M0 0 C3.67449541 5.51174311 4.72218382 10.50034566 4 17 C1.5 20 1.5 20 -1 22 C-1.6875 19.8125 -1.6875 19.8125 -2 17 C-1.505 16.2471875 -1.01 15.494375 -0.5 14.71875 C1.36544274 11.33763503 1.1459696 9.48029395 0.6875 5.6875 C0.56761719 4.61886719 0.44773438 3.55023438 0.32421875 2.44921875 C0.21722656 1.64097656 0.11023438 0.83273438 0 0 Z " fill="#D06A20" transform="translate(143,117)"/>
<path d="M0 0 C1.65 0 3.3 0 5 0 C4.8125 2.8125 4.8125 2.8125 4 6 C1.37232094 8.00533402 -0.86788901 8.955963 -4 10 C-4 7.69 -4 5.38 -4 3 C-3.01 3 -2.02 3 -1 3 C-0.67 2.01 -0.34 1.02 0 0 Z " fill="#FCB205" transform="translate(74,40)"/>
<path d="M0 0 C0.99 0.33 1.98 0.66 3 1 C1.07443364 7.85618326 -1.2472483 14.43252132 -4 21 C-5.16801612 17.49595163 -4.59818813 15.58912879 -4 12 C-4.33 11.01 -4.66 10.02 -5 9 C-3.625 7.5 -3.625 7.5 -2 6 C-1.34 6 -0.68 6 0 6 C-0.33 5.01 -0.66 4.02 -1 3 C-0.67 2.01 -0.34 1.02 0 0 Z " fill="#CB320C" transform="translate(65,151)"/>
<path d="M0 0 C1 2 1 2 0.22265625 4.6015625 C-0.16019531 5.59929687 -0.54304688 6.59703125 -0.9375 7.625 C-1.31777344 8.62789062 -1.69804688 9.63078125 -2.08984375 10.6640625 C-2.39019531 11.43492187 -2.69054687 12.20578125 -3 13 C-4.60568666 12.71682074 -6.20952047 12.42312209 -7.8125 12.125 C-8.70582031 11.96257812 -9.59914063 11.80015625 -10.51953125 11.6328125 C-13 11 -13 11 -16 9 C-7.42857143 7.57142857 -7.42857143 7.57142857 -4 10 C-4 8.35 -4 6.7 -4 5 C-3.01 4.67 -2.02 4.34 -1 4 C-0.26676204 1.98491642 -0.26676204 1.98491642 0 0 Z " fill="#D65E14" transform="translate(80,119)"/>
<path d="M0 0 C3.81538462 2.46153846 3.81538462 2.46153846 4.75 5.1875 C4.8325 5.785625 4.915 6.38375 5 7 C6.32 5.68 7.64 4.36 9 3 C9.75 4.75 9.75 4.75 10 7 C8.4375 9.3125 8.4375 9.3125 6 11 C2.75 10.75 2.75 10.75 0 10 C0.66 9.67 1.32 9.34 2 9 C1.34 6.03 0.68 3.06 0 0 Z " fill="#F98003" transform="translate(104,133)"/>
<path d="M0 0 C0.99 0.33 1.98 0.66 3 1 C3.33 4.3 3.66 7.6 4 11 C2.35 11 0.7 11 -1 11 C-2.60080151 6.99799622 -1.29279692 3.95443764 0 0 Z " fill="#F7A020" transform="translate(129,119)"/>
<path d="M0 0 C1.9375 0.375 1.9375 0.375 4 1 C5.42041821 3.84083641 5.31452272 5.85477278 5 9 C3 11.375 3 11.375 1 13 C-0.00496852 9.98509443 -0.10335303 7.95818308 -0.0625 4.8125 C-0.05347656 3.91144531 -0.04445313 3.01039062 -0.03515625 2.08203125 C-0.02355469 1.39496094 -0.01195313 0.70789063 0 0 Z " fill="#FCB708" transform="translate(109,16)"/>
<path d="M0 0 C2.58215672 2.58215672 2.29794465 3.72703127 2.3125 7.3125 C2.24945178 11.68002181 1.87413657 14.52708497 -1 18 C-2.32 17.67 -3.64 17.34 -5 17 C-4.505 15.515 -4.505 15.515 -4 14 C-3.01 13.67 -2.02 13.34 -1 13 C-0.67 8.71 -0.34 4.42 0 0 Z " fill="#DF6800" transform="translate(121,134)"/>
<path d="M0 0 C2.475 0.495 2.475 0.495 5 1 C5.8723412 3.99480917 6.10829766 6.63575911 6.0625 9.75 C6.05347656 10.54921875 6.04445312 11.3484375 6.03515625 12.171875 C6.01775391 13.07679687 6.01775391 13.07679687 6 14 C4.046875 13.1796875 4.046875 13.1796875 2 12 C1.0987913 8.54536666 1 5.58088792 1 2 C0.67 1.34 0.34 0.68 0 0 Z " fill="#FA7005" transform="translate(138,111)"/>
<path d="M0 0 C2 3 2 3 2 7 C1.34 7 0.68 7 0 7 C0 7.66 0 8.32 0 9 C-1.65 8.67 -3.3 8.34 -5 8 C-5 6.35 -5 4.7 -5 3 C-3.35 2.67 -1.7 2.34 0 2 C0 1.34 0 0.68 0 0 Z " fill="#E87701" transform="translate(73,73)"/>
<path d="M0 0 C0 3 0 3 -1 6 C-0.01 7.485 -0.01 7.485 1 9 C0.01 9.495 0.01 9.495 -1 10 C-1.66 9.67 -2.32 9.34 -3 9 C-3.66 13.29 -4.32 17.58 -5 22 C-5.99 22 -6.98 22 -8 22 C-7.53207031 20.93072266 -7.53207031 20.93072266 -7.0546875 19.83984375 C-6.01066754 17.02872335 -5.5367219 14.52437695 -5.125 11.5625 C-4.31332561 6.71863669 -3.07724191 3.79526502 0 0 Z " fill="#DF840E" transform="translate(82,46)"/>
<path d="M0 0 C0.66 0.33 1.32 0.66 2 1 C0.48328036 5.55015893 -3.16891053 7.50057264 -7 10 C-7.33 9.34 -7.66 8.68 -8 8 C-7.34 8 -6.68 8 -6 8 C-6.20625 7.401875 -6.4125 6.80375 -6.625 6.1875 C-7 4 -7 4 -5 1 C-4.01 1 -3.02 1 -2 1 C-2 1.66 -2 2.32 -2 3 C-1.34 3 -0.68 3 0 3 C0 2.01 0 1.02 0 0 Z " fill="#DC790E" transform="translate(81,72)"/>
<path d="M0 0 C0.99 1.485 0.99 1.485 2 3 C2.66 2.67 3.32 2.34 4 2 C5.3271261 5.9813783 5.06915913 9.85045227 5 14 C4.67 14 4.34 14 4 14 C4 12.35 4 10.7 4 9 C3.34 9 2.68 9 2 9 C2 11.64 2 14.28 2 17 C1.34 16.67 0.68 16.34 0 16 C0 10.72 0 5.44 0 0 Z " fill="#E9AC23" transform="translate(122,19)"/>
<path d="M0 0 C0.66 0 1.32 0 2 0 C1.91306859 1.79258558 1.80489496 3.58415144 1.6875 5.375 C1.62949219 6.37273438 1.57148437 7.37046875 1.51171875 8.3984375 C1.34285156 9.25695313 1.17398438 10.11546875 1 11 C0.01 11.66 -0.98 12.32 -2 13 C-3.25664978 10.09399739 -4 8.20395416 -4 5 C-2.5625 3.4375 -2.5625 3.4375 -1 2 C-0.67 1.34 -0.34 0.68 0 0 Z " fill="#F6BB06" transform="translate(125,10)"/>
<path d="M0 0 C0.66 0 1.32 0 2 0 C3.00484204 1.95585325 4.00373805 3.91476237 5 5.875 C5.556875 6.96554688 6.11375 8.05609375 6.6875 9.1796875 C8 12 8 12 8 14 C5.0625 13.1875 5.0625 13.1875 2 12 C0.90341064 8.71023192 1.20046862 7.28696233 2 4 C1.34 4 0.68 4 0 4 C0 2.68 0 1.36 0 0 Z " fill="#EE7011" transform="translate(143,152)"/>
<path d="M0 0 C0.99 0.99 1.98 1.98 3 3 C1.125 9.75 1.125 9.75 0 12 C-1.65 12 -3.3 12 -5 12 C-3.84826645 9.53199953 -2.95216435 7.95216435 -1 6 C-0.60235737 4.01178687 -0.26224651 2.01055661 0 0 Z " fill="#EB5108" transform="translate(142,96)"/>
<path d="M0 0 C0.625 1.875 0.625 1.875 1 4 C0.34 4.66 -0.32 5.32 -1 6 C-1.99 6 -2.98 6 -4 6 C-4.144375 6.639375 -4.28875 7.27875 -4.4375 7.9375 C-5 10 -5 10 -6 11 C-7.66617115 11.04063832 -9.33388095 11.042721 -11 11 C-7.81316569 6.66590534 -4.13621084 3.3810038 0 0 Z " fill="#EC8815" transform="translate(48,82)"/>
<path d="M0 0 C0 0.66 0 1.32 0 2 C-1.60875 2.12375 -1.60875 2.12375 -3.25 2.25 C-7.35603475 3.07120695 -8.62427019 3.61915374 -11 7 C-11.80315654 10.14481791 -11.80315654 10.14481791 -12 13 C-12.66 13 -13.32 13 -14 13 C-14.50432107 7.7046288 -13.28757779 5.13295494 -10 1 C-6.1496895 -1.56687367 -4.41430237 -0.83288724 0 0 Z " fill="#C16713" transform="translate(145,6)"/>
<path d="M0 0 C0.66 1.32 1.32 2.64 2 4 C3.32 3.01 4.64 2.02 6 1 C6.99 1.66 7.98 2.32 9 3 C9.1875 5.625 9.1875 5.625 9 8 C8.01 8.33 7.02 8.66 6 9 C5.34 7.68 4.68 6.36 4 5 C0.88214887 5.64644661 0.88214887 5.64644661 0 8 C0 7.01 0 6.02 0 5 C-0.66 4.67 -1.32 4.34 -2 4 C-1.34 2.68 -0.68 1.36 0 0 Z " fill="#ED7403" transform="translate(76,99)"/>
<path d="M0 0 C0 2 0 2 -2.1875 4.3125 C-3.115625 5.199375 -4.04375 6.08625 -5 7 C-5.928125 7.928125 -6.85625 8.85625 -7.8125 9.8125 C-8.534375 10.534375 -9.25625 11.25625 -10 12 C-10.33 10.02 -10.66 8.04 -11 6 C-9.54550599 4.9944239 -8.08627557 3.99569565 -6.625 3 C-5.40683594 2.1646875 -5.40683594 2.1646875 -4.1640625 1.3125 C-2 0 -2 0 0 0 Z " fill="#DD8323" transform="translate(46,77)"/>
<path d="M0 0 C0.33 0 0.66 0 1 0 C2.43794854 8.07562173 3.29599372 15.7943963 3 24 C2.67 24 2.34 24 2 24 C1.67 21.36 1.34 18.72 1 16 C0.01 16.66 -0.98 17.32 -2 18 C-2 17.01 -2 16.02 -2 15 C-1.34 15 -0.68 15 0 15 C0 10.05 0 5.1 0 0 Z " fill="#E9AF1E" transform="translate(131,19)"/>
<path d="M0 0 C0.66 0 1.32 0 2 0 C3.4783226 2.95664519 3.06032783 5.74229737 3 9 C3.66 9.33 4.32 9.66 5 10 C0.60546875 14.00390625 0.60546875 14.00390625 -1 15 C-1.99 14.67 -2.98 14.34 -4 14 C-3.34 13.67 -2.68 13.34 -2 13 C-1.27840576 11.35636866 -0.60648579 9.68949614 0 8 C0.33 8 0.66 8 1 8 C1.08226668 4.95613276 0.97608217 2.92824652 0 0 Z " fill="#EBA929" transform="translate(151,7)"/>
<path d="M0 0 C0.50789063 0.39832031 1.01578125 0.79664062 1.5390625 1.20703125 C5.53903498 4.28566175 9.36879143 6.91595614 14 9 C10.20350022 10.26549993 8.69391563 9.30826178 5 8 C4.01 8 3.02 8 2 8 C0 2.25 0 2.25 0 0 Z " fill="#E56C15" transform="translate(45,123)"/>
<path d="M0 0 C0.66 0 1.32 0 2 0 C2.36351563 1.15628906 2.36351563 1.15628906 2.734375 2.3359375 C3.06953125 3.33882812 3.4046875 4.34171875 3.75 5.375 C4.07484375 6.37273437 4.3996875 7.37046875 4.734375 8.3984375 C6.1745324 11.35876104 7.04864259 11.79042729 10 13 C10.75 15.125 10.75 15.125 11 17 C5.93446855 15.00996979 3.41974001 11.19324894 1.25 6.375 C0 3 0 3 0 0 Z " fill="#EEA21F" transform="translate(107,161)"/>
<path d="M0 0 C0.66 0 1.32 0 2 0 C1.01 4.95 0.02 9.9 -1 15 C-1.99 14.67 -2.98 14.34 -4 14 C-3.91231752 12.4156683 -3.80412671 10.83246433 -3.6875 9.25 C-3.60048828 7.92742187 -3.60048828 7.92742187 -3.51171875 6.578125 C-2.92970571 3.64584554 -2.04364902 2.1597081 0 0 Z " fill="#EF9A1D" transform="translate(139,114)"/>
<path d="M0 0 C1.46726798 3.81489674 0.43336419 6.29011622 -1 10 C-0.34 10 0.32 10 1 10 C0.67 11.65 0.34 13.3 0 15 C-1.65 15 -3.3 15 -5 15 C-3.33333333 10 -1.66666667 5 0 0 Z " fill="#EFA317" transform="translate(62,56)"/>
<path d="M0 0 C0.66 0 1.32 0 2 0 C0.39417695 5.25542089 -2.30585743 7.4952102 -7.03515625 10.13671875 C-12.57083333 13 -12.57083333 13 -15 13 C-15 12.34 -15 11.68 -15 11 C-14.31292969 10.67386719 -13.62585938 10.34773438 -12.91796875 10.01171875 C-11.56638672 9.35623047 -11.56638672 9.35623047 -10.1875 8.6875 C-9.29417969 8.25824219 -8.40085937 7.82898437 -7.48046875 7.38671875 C-5.19714024 6.11021226 -3.80235146 4.8456512 -2 3 C-1.34 3 -0.68 3 0 3 C0 2.01 0 1.02 0 0 Z " fill="#B55813" transform="translate(113,31)"/>
<path d="M0 0 C0.99 0.66 1.98 1.32 3 2 C1.5741914 5.45195767 -0.09746334 7.1014256 -3.125 9.25 C-3.84945312 9.77078125 -4.57390625 10.2915625 -5.3203125 10.828125 C-5.87460937 11.21484375 -6.42890625 11.6015625 -7 12 C-5.44298069 7.32894208 -2.91552627 3.91294315 0 0 Z " fill="#F2A81A" transform="translate(56,71)"/>
<path d="M0 0 C-3.63 0.33 -7.26 0.66 -11 1 C-11 1.99 -11 2.98 -11 4 C-11.99 3.67 -12.98 3.34 -14 3 C-13.67 2.01 -13.34 1.02 -13 0 C-13.66 -0.33 -14.32 -0.66 -15 -1 C-9.92717163 -2.69094279 -4.49272587 -2.99515058 0 0 Z " fill="#AD480F" transform="translate(128,62)"/>
<path d="M0 0 C0.99 0.66 1.98 1.32 3 2 C1.74106845 7.72241611 -0.07161088 10.66869918 -4 15 C-4.33 15.66 -4.66 16.32 -5 17 C-5.66 16.67 -6.32 16.34 -7 16 C-5.35 13.03 -3.7 10.06 -2 7 C-1.34 7 -0.68 7 0 7 C0 4.69 0 2.38 0 0 Z " fill="#DC8A38" transform="translate(141,93)"/>
<path d="M0 0 C0.66 0 1.32 0 2 0 C1.34309381 3.78239671 0.279869 7.21841526 -1.0625 10.8125 C-1.42472656 11.78832031 -1.78695312 12.76414062 -2.16015625 13.76953125 C-2.57587891 14.87361328 -2.57587891 14.87361328 -3 16 C-3.33 16 -3.66 16 -4 16 C-4.28169014 7.54929577 -4.28169014 7.54929577 -2 4 C-1.62875 3.2575 -1.2575 2.515 -0.875 1.75 C-0.58625 1.1725 -0.2975 0.595 0 0 Z " fill="#D76F0F" transform="translate(87,97)"/>
<path d="M0 0 C2.00720923 0.28674418 4.0085944 0.61866701 6 1 C-3.1 8 -3.1 8 -6 8 C-6 7.01 -6 6.02 -6 5 C-4.68 5 -3.36 5 -2 5 C-1.855625 4.360625 -1.71125 3.72125 -1.5625 3.0625 C-1 1 -1 1 0 0 Z " fill="#D66715" transform="translate(58,85)"/>
<path d="M0 0 C2.59729612 0.97398605 4.39633786 2.14549151 6.5 3.9375 C4.53533587 5.00525224 2.53144641 6.00303465 0.5 6.9375 C-0.16 6.6075 -0.82 6.2775 -1.5 5.9375 C-1.17 5.2775 -0.84 4.6175 -0.5 3.9375 C0.16 3.9375 0.82 3.9375 1.5 3.9375 C1.5 3.2775 1.5 2.6175 1.5 1.9375 C-1.14 2.5975 -3.78 3.2575 -6.5 3.9375 C-3.21269488 -0.08031737 -3.21269488 -0.08031737 0 0 Z " fill="#DA710C" transform="translate(65.5,79.0625)"/>
<path d="M0 0 C0.66 0 1.32 0 2 0 C2 0.66 2 1.32 2 2 C1.34 2 0.68 2 0 2 C0 1.34 0 0.68 0 0 Z M-5 4 C-4.01 4.33 -3.02 4.66 -2 5 C-1.67 6.65 -1.34 8.3 -1 10 C-2.65 9.67 -4.3 9.34 -6 9 C-6.33 8.01 -6.66 7.02 -7 6 C-6.34 5.34 -5.68 4.68 -5 4 Z " fill="#DE2D00" transform="translate(63,155)"/>
<path d="M0 0 C0.99 0.33 1.98 0.66 3 1 C2.3125 3.4375 2.3125 3.4375 1 6 C-1.625 6.8125 -1.625 6.8125 -4 7 C-2.92598892 4.08482708 -2.22189824 2.22189824 0 0 Z " fill="#E57204" transform="translate(120,161)"/>
<path d="M0 0 C1.98 0 3.96 0 6 0 C5.67 1.32 5.34 2.64 5 4 C2.69 4.33 0.38 4.66 -2 5 C-1.34 3.35 -0.68 1.7 0 0 Z " fill="#FCB109" transform="translate(104,32)"/>
<path d="M0 0 C2.31 0.33 4.62 0.66 7 1 C7 4 7 4 5.5 5.6875 C5.005 6.120625 4.51 6.55375 4 7 C3.67 5.68 3.34 4.36 3 3 C1.02 3.33 -0.96 3.66 -3 4 C-2.01 2.68 -1.02 1.36 0 0 Z " fill="#F6B514" transform="translate(128,4)"/>
<path d="M0 0 C0.33 0.99 0.66 1.98 1 3 C0.01 3.99 -0.98 4.98 -2 6 C-5.16115776 4.63016497 -5.9927092 4.0109362 -8 1 C-6.865625 1.020625 -5.73125 1.04125 -4.5625 1.0625 C-1.18424326 1.41577477 -1.18424326 1.41577477 0 0 Z " fill="#FC7505" transform="translate(63,118)"/>
<path d="M0 0 C-3.32307692 3.93846154 -3.32307692 3.93846154 -6.75 4.25 C-7.4925 4.1675 -8.235 4.085 -9 4 C-8.67 2.68 -8.34 1.36 -8 0 C-4.94736336 -0.98120464 -3.05263664 -0.98120464 0 0 Z " fill="#FA9512" transform="translate(60,82)"/>
<path d="M0 0 C0.33 0.66 0.66 1.32 1 2 C0.67 2.66 0.34 3.32 0 4 C3.96 4 7.92 4 12 4 C12 4.33 12 4.66 12 5 C6.39 5 0.78 5 -5 5 C-5 4.34 -5 3.68 -5 3 C-2.5 1.375 -2.5 1.375 0 0 Z " fill="#B01115" transform="translate(20,174)"/>
<path d="M0 0 C1.25541557 3.76624671 0.37061958 5.37188934 -1 9 C-2.32 9 -3.64 9 -5 9 C-4.34 6.69 -3.68 4.38 -3 2 C-2.01 2 -1.02 2 0 2 C0 1.34 0 0.68 0 0 Z " fill="#DB2E00" transform="translate(124,169)"/>
<path d="M0 0 C0.99 0 1.98 0 3 0 C3.99 2.97 4.98 5.94 6 9 C5.34 9 4.68 9 4 9 C0.88002198 5.69649386 0 4.67590167 0 0 Z " fill="#D15010" transform="translate(138,143)"/>
<path d="M0 0 C1.8871875 0.0309375 1.8871875 0.0309375 3.8125 0.0625 C3.4825 0.7225 3.1525 1.3825 2.8125 2.0625 C1.8225 2.0625 0.8325 2.0625 -0.1875 2.0625 C-0.1875 2.7225 -0.1875 3.3825 -0.1875 4.0625 C-2.8275 3.7325 -5.4675 3.4025 -8.1875 3.0625 C-6.45706736 -0.39836529 -3.47359009 -0.0569441 0 0 Z " fill="#F94407" transform="translate(47.1875,151.9375)"/>
<path d="M0 0 C2 4 2 4 2 7 C1.34 7 0.68 7 0 7 C-0.33 7.66 -0.66 8.32 -1 9 C-1.66 9 -2.32 9 -3 9 C-2.01 6.03 -1.02 3.06 0 0 Z " fill="#BA440A" transform="translate(36,143)"/>
<path d="M0 0 C1.35949488 4.07848463 0.14486103 7.17680945 -0.9375 11.1875 C-1.13279297 11.93708984 -1.32808594 12.68667969 -1.52929688 13.45898438 C-2.01214375 15.30793459 -2.50510633 17.15423776 -3 19 C-4.74643954 13.27114908 -4.09705091 7.19410181 -1.4375 1.875 C-0.7259375 0.946875 -0.7259375 0.946875 0 0 Z " fill="#F8A914" transform="translate(77,48)"/>
<path d="M0 0 C2.1519437 3.22791555 2.20086443 4.28400809 2 8 C1.01 7.67 0.02 7.34 -1 7 C-1 6.34 -1 5.68 -1 5 C-1.99 4.67 -2.98 4.34 -4 4 C-2.68 3.34 -1.36 2.68 0 2 C0 1.34 0 0.68 0 0 Z " fill="#CF1F09" transform="translate(59,170)"/>
<path d="M0 0 C0.99 0.33 1.98 0.66 3 1 C2.34 1 1.68 1 1 1 C0.79375 1.556875 0.5875 2.11375 0.375 2.6875 C-1.55000774 5.92501302 -4.03850902 7.68231141 -7 10 C-6.3125 7.125 -6.3125 7.125 -5 4 C-2.375 2.625 -2.375 2.625 0 2 C0 1.34 0 0.68 0 0 Z " fill="#FE4607" transform="translate(34,159)"/>
<path d="M0 0 C2.38672669 2.96283313 4.7353371 5.94270509 7 9 C6.01 9.495 6.01 9.495 5 10 C5 9.34 5 8.68 5 8 C2.525 7.01 2.525 7.01 0 6 C0 4.02 0 2.04 0 0 Z " fill="#D23E0B" transform="translate(28,120)"/>
<path d="M0 0 C2.125 0.9375 2.125 0.9375 4 2 C3.39816251 4.02045442 2.72693904 6.02111039 2 8 C1.01 8.495 1.01 8.495 0 9 C-0.66 6.36 -1.32 3.72 -2 1 C-1.34 0.67 -0.68 0.34 0 0 Z " fill="#F88103" transform="translate(45,90)"/>
<path d="M0 0 C-1.01620005 3.04860014 -1.77391571 3.86666922 -4 6 C-4.33 6.66 -4.66 7.32 -5 8 C-5.99 7.67 -6.98 7.34 -8 7 C-6.47663111 3.31852519 -4.31953005 0 0 0 Z " fill="#F50E01" transform="translate(32,166)"/>
<path d="M0 0 C0.66 0.66 1.32 1.32 2 2 C1.96712417 4.72869407 1.43602229 7.2966618 1 10 C0.01 9.34 -0.98 8.68 -2 8 C-1.125 1.125 -1.125 1.125 0 0 Z " fill="#FEAE0A" transform="translate(109,85)"/>
<path d="M0 0 C-1 2 -1 2 -3.125 3.125 C-6.52391089 4.15945114 -9.46640886 4.1385722 -13 4 C-12.360625 3.87625 -11.72125 3.7525 -11.0625 3.625 C-10.0415625 3.315625 -10.0415625 3.315625 -9 3 C-8.67 2.34 -8.34 1.68 -8 1 C-5.29120665 -0.35439668 -2.99066732 -0.06501451 0 0 Z " fill="#ED0201" transform="translate(37,173)"/>
<path d="M0 0 C0.66 0 1.32 0 2 0 C1.67 2.97 1.34 5.94 1 9 C0.67 8.34 0.34 7.68 0 7 C-0.66 7 -1.32 7 -2 7 C-2.125 4.625 -2.125 4.625 -2 2 C-1.34 1.34 -0.68 0.68 0 0 Z " fill="#E3880C" transform="translate(114,66)"/>
<path d="M0 0 C0.33 0.99 0.66 1.98 1 3 C-1.31 4.98 -3.62 6.96 -6 9 C-4.86634892 4.46539569 -3.35806626 3.09975347 0 0 Z " fill="#EAAD24" transform="translate(99,48)"/>
<path d="M0 0 C1.32 0.99 2.64 1.98 4 3 C3.67 5.64 3.34 8.28 3 11 C2.01 10.34 1.02 9.68 0 9 C0.66 9 1.32 9 2 9 C1.34 6.03 0.68 3.06 0 0 Z " fill="#E67D14" transform="translate(104,133)"/>
<path d="M0 0 C2.475 0.495 2.475 0.495 5 1 C5.625 2.8125 5.625 2.8125 6 5 C5.01 6.485 5.01 6.485 4 8 C3.34 7.67 2.68 7.34 2 7 C1.61781233 5.34385343 1.28604898 3.67542976 1 2 C0.67 1.34 0.34 0.68 0 0 Z " fill="#E56304" transform="translate(138,111)"/>
<path d="M0 0 C0.33 0.66 0.66 1.32 1 2 C-2.44615385 7.78461538 -2.44615385 7.78461538 -5.25 8.875 C-5.8275 8.91625 -6.405 8.9575 -7 9 C-2.85714286 2.57142857 -2.85714286 2.57142857 0 0 Z " fill="#CB5619" transform="translate(31,86)"/>
<path d="M0 0 C0.33 1.32 0.66 2.64 1 4 C-0.65 4.33 -2.3 4.66 -4 5 C-2.68 3.35 -1.36 1.7 0 0 Z M-5 5 C-4.34 5.66 -3.68 6.32 -3 7 C-3.33 7.66 -3.66 8.32 -4 9 C-5.32 8.34 -6.64 7.68 -8 7 C-7.01 6.34 -6.02 5.68 -5 5 Z " fill="#E37A0C" transform="translate(72,71)"/>
<path d="M0 0 C0.66 0.33 1.32 0.66 2 1 C1.84660156 1.56203125 1.69320312 2.1240625 1.53515625 2.703125 C0.98639581 5.05838878 0.68502401 7.34548104 0.4375 9.75 C0.35371094 10.54921875 0.26992187 11.3484375 0.18359375 12.171875 C0.12300781 12.77515625 0.06242188 13.3784375 0 14 C-0.33 14 -0.66 14 -1 14 C-1.02685938 11.85423363 -1.04633088 9.70837355 -1.0625 7.5625 C-1.07410156 6.36753906 -1.08570313 5.17257813 -1.09765625 3.94140625 C-1 1 -1 1 0 0 Z " fill="#DAA93C" transform="translate(138,15)"/>
<path d="M0 0 C0.66 0 1.32 0 2 0 C2.6875 2.75 2.6875 2.75 3 6 C2.01 7.32 1.02 8.64 0 10 C0 6.7 0 3.4 0 0 Z " fill="#F78200" transform="translate(116,137)"/>
<path d="M0 0 C3 2 3 2 3.6875 4.625 C3.790625 5.40875 3.89375 6.1925 4 7 C3.01 7 2.02 7 1 7 C0.34 6.34 -0.32 5.68 -1 5 C-0.625 2.375 -0.625 2.375 0 0 Z " fill="#F6A43B" transform="translate(121,93)"/>
<path d="M0 0 C-0.33 0.99 -0.66 1.98 -1 3 C-4.3 2.34 -7.6 1.68 -11 1 C-11 0.67 -11 0.34 -11 0 C-3.57142857 -1.28571429 -3.57142857 -1.28571429 0 0 Z " fill="#FBAD12" transform="translate(152,4)"/>
<path d="M0 0 C0.66 0 1.32 0 2 0 C3 3 4 6 5 9 C4.34 9.66 3.68 10.32 3 11 C2.49384702 9.73160474 1.99530901 8.46016898 1.5 7.1875 C1.2215625 6.47980469 0.943125 5.77210937 0.65625 5.04296875 C0 3 0 3 0 0 Z " fill="#DD831A" transform="translate(99,118)"/>
<path d="M0 0 C2.475 0.495 2.475 0.495 5 1 C4.01 1.495 4.01 1.495 3 2 C3.33 2.99 3.66 3.98 4 5 C3.01 5.495 3.01 5.495 2 6 C2 5.34 2 4.68 2 4 C1.34 4 0.68 4 0 4 C0 2.68 0 1.36 0 0 Z " fill="#FAB718" transform="translate(118,91)"/>
<path d="M0 0 C0.66 0.33 1.32 0.66 2 1 C-0.64 2.98 -3.28 4.96 -6 7 C-6 6.01 -6 5.02 -6 4 C-4.08512183 2.34043892 -2.26423282 1.13211641 0 0 Z " fill="#FDA62A" transform="translate(67,74)"/>
<path d="M0 0 C0.33 0 0.66 0 1 0 C2.125 7.75 2.125 7.75 1 10 C0.34 10 -0.32 10 -1 10 C-0.67 6.7 -0.34 3.4 0 0 Z " fill="#F6A132" transform="translate(116,66)"/>
<path d="M0 0 C-2.97 1.32 -5.94 2.64 -9 4 C-8.67 2.68 -8.34 1.36 -8 0 C-4.63458162 -1.08174162 -3.70152678 -0.92538169 0 0 Z " fill="#F99518" transform="translate(113,62)"/>
<path d="M0 0 C0.99 0.66 1.98 1.32 3 2 C1.02 4.31 -0.96 6.62 -3 9 C-3 5.30581799 -1.71820705 3.22163822 0 0 Z " fill="#D5650B" transform="translate(49,92)"/>
<path d="M0 0 C0.99 0 1.98 0 3 0 C3.33 1.98 3.66 3.96 4 6 C3.34 5.01 2.68 4.02 2 3 C1.67 3.66 1.34 4.32 1 5 C0.34 5 -0.32 5 -1 5 C-0.67 3.35 -0.34 1.7 0 0 Z " fill="#E48911" transform="translate(89,92)"/>
<path d="M0 0 C0.33 1.65 0.66 3.3 1 5 C-1.97 4.505 -1.97 4.505 -5 4 C-4.67 3.01 -4.34 2.02 -4 1 C-2 0 -2 0 0 0 Z " fill="#F3A410" transform="translate(92,71)"/>
<path d="M0 0 C1.60031344 3.20062687 0.03173691 5.72271806 -1 9 C-1.66 8.67 -2.32 8.34 -3 8 C-2.25 2.25 -2.25 2.25 0 0 Z " fill="#AE3005" transform="translate(89,47)"/>
<path d="M0 0 C3.63 0.66 7.26 1.32 11 2 C11 2.33 11 2.66 11 3 C9.54257537 3.08096803 8.08387193 3.13917774 6.625 3.1875 C5.81289062 3.22230469 5.00078125 3.25710937 4.1640625 3.29296875 C3.44992188 3.19628906 2.73578125 3.09960938 2 3 C1.34 2.01 0.68 1.02 0 0 Z " fill="#D7701E" transform="translate(59,133)"/>
<path d="M0 0 C0.66 0.33 1.32 0.66 2 1 C0.37660195 2.70884005 -1.29319053 4.37446717 -3 6 C-3.66 6 -4.32 6 -5 6 C-5 5.01 -5 4.02 -5 3 C-2.625 1.25 -2.625 1.25 0 0 Z " fill="#F28A1A" transform="translate(109,65)"/>
<path d="" fill="#000000" transform="translate(0,0)"/>
<path d="" fill="#000000" transform="translate(0,0)"/>
<path d="" fill="#000000" transform="translate(0,0)"/>
<path d="" fill="#000000" transform="translate(0,0)"/>
</svg>
